<svg xmlns="http://www.w3.org/2000/svg" width="1440" height="900"><path d="M680,446L680,500L756,508Z" fill="#4cc6d1" stroke="#4cc6d1" stroke-width="1.51"/><path d="M756,508L762,405L680,446Z" fill="#4cc7d3" stroke="#4cc7d3" stroke-width="1.51"/><path d="M756,508L826,488L762,405Z" fill="#4cc6cf" stroke="#4cc6cf" stroke-width="1.51"/><path d="M680,500L661,571L756,508Z" fill="#4cc5cd" stroke="#4cc5cd" stroke-width="1.51"/><path d="M756,508L779,586L826,488Z" fill="#4bc4c9" stroke="#4bc4c9" stroke-width="1.51"/><path d="M592,583L661,571L680,500Z" fill="#4dc1cb" stroke="#4dc1cb" stroke-width="1.51"/><path d="M680,446L562,471L680,500Z" fill="#4ec3d2" stroke="#4ec3d2" stroke-width="1.51"/><path d="M747,348L624,407L680,446Z" fill="#4ec2d4" stroke="#4ec2d4" stroke-width="1.51"/><path d="M661,571L779,586L756,508Z" fill="#4bc4cb" stroke="#4bc4cb" stroke-width="1.51"/><path d="M762,405L747,348L680,446Z" fill="#4ec4d4" stroke="#4ec4d4" stroke-width="1.51"/><path d="M807,325L747,348L762,405Z" fill="#4ec0d1" stroke="#4ec0d1" stroke-width="1.51"/><path d="M826,488L851,421L762,405Z" fill="#4cc5ce" stroke="#4cc5ce" stroke-width="1.51"/><path d="M624,407L562,471L680,446Z" fill="#4ec2d4" stroke="#4ec2d4" stroke-width="1.51"/><path d="M779,586L817,611L826,488Z" fill="#4bc2c5" stroke="#4bc2c5" stroke-width="1.51"/><path d="M826,488L948,478L851,421Z" fill="#4bc4ca" stroke="#4bc4ca" stroke-width="1.51"/><path d="M769,664L817,611L779,586Z" fill="#4ac1c2" stroke="#4ac1c2" stroke-width="1.51"/><path d="M562,471L592,583L680,500Z" fill="#4ec0cf" stroke="#4ec0cf" stroke-width="1.51"/><path d="M661,571L660,647L779,586Z" fill="#4bc2c7" stroke="#4bc2c7" stroke-width="1.51"/><path d="M851,421L807,325L762,405Z" fill="#4dc1cf" stroke="#4dc1cf" stroke-width="1.51"/><path d="M614,643L660,647L661,571Z" fill="#4cbfc6" stroke="#4cbfc6" stroke-width="1.51"/><path d="M747,348L620,293L624,407Z" fill="#4fbdd4" stroke="#4fbdd4" stroke-width="1.51"/><path d="M624,407L500,407L562,471Z" fill="#4fbed4" stroke="#4fbed4" stroke-width="1.51"/><path d="M763,267L717,278L747,348Z" fill="#50bcd3" stroke="#50bcd3" stroke-width="1.51"/><path d="M660,647L769,664L779,586Z" fill="#4ac1c4" stroke="#4ac1c4" stroke-width="1.51"/><path d="M592,583L614,643L661,571Z" fill="#4cbfc7" stroke="#4cbfc7" stroke-width="1.51"/><path d="M804,728L843,697L769,664Z" fill="#49beba" stroke="#49beba" stroke-width="1.51"/><path d="M717,278L620,293L747,348Z" fill="#50bbd4" stroke="#50bbd4" stroke-width="1.51"/><path d="M717,278L701,192L620,293Z" fill="#51b7d5" stroke="#51b7d5" stroke-width="1.51"/><path d="M807,325L763,267L747,348Z" fill="#4fbcd1" stroke="#4fbcd1" stroke-width="1.51"/><path d="M592,583L516,647L614,643Z" fill="#4dbbc6" stroke="#4dbbc6" stroke-width="1.51"/><path d="M562,471L524,548L592,583Z" fill="#4ebdcd" stroke="#4ebdcd" stroke-width="1.51"/><path d="M463,530L524,548L562,471Z" fill="#4fbbcf" stroke="#4fbbcf" stroke-width="1.51"/><path d="M939,612L826,488L817,611Z" fill="#4ac1c2" stroke="#4ac1c2" stroke-width="1.51"/><path d="M939,612L948,478L826,488Z" fill="#4ac1c3" stroke="#4ac1c3" stroke-width="1.51"/><path d="M851,421L931,304L807,325Z" fill="#4ebecc" stroke="#4ebecc" stroke-width="1.51"/><path d="M829,189L780,184L763,267Z" fill="#51b4d1" stroke="#51b4d1" stroke-width="1.51"/><path d="M620,293L500,407L624,407Z" fill="#50bad4" stroke="#50bad4" stroke-width="1.51"/><path d="M769,664L843,697L817,611Z" fill="#49bfbe" stroke="#49bfbe" stroke-width="1.51"/><path d="M804,728L769,664L689,776Z" fill="#49bebb" stroke="#49bebb" stroke-width="1.51"/><path d="M843,697L939,612L817,611Z" fill="#49bebc" stroke="#49bebc" stroke-width="1.51"/><path d="M948,478L978,425L851,421Z" fill="#4bc3c8" stroke="#4bc3c8" stroke-width="1.51"/><path d="M1019,520L978,425L948,478Z" fill="#4ac1c3" stroke="#4ac1c3" stroke-width="1.51"/><path d="M449,504L463,530L562,471Z" fill="#4fbad0" stroke="#4fbad0" stroke-width="1.51"/><path d="M524,548L516,647L592,583Z" fill="#4ebac8" stroke="#4ebac8" stroke-width="1.51"/><path d="M689,776L769,664L660,647Z" fill="#4abfbf" stroke="#4abfbf" stroke-width="1.51"/><path d="M463,530L516,647L524,548Z" fill="#4fb9ca" stroke="#4fb9ca" stroke-width="1.51"/><path d="M596,754L689,776L660,647Z" fill="#4abcbd" stroke="#4abcbd" stroke-width="1.51"/><path d="M978,425L931,304L851,421Z" fill="#4cbfc8" stroke="#4cbfc8" stroke-width="1.51"/><path d="M463,530L446,652L516,647Z" fill="#4eb6c8" stroke="#4eb6c8" stroke-width="1.51"/><path d="M500,407L449,504L562,471Z" fill="#50bcd3" stroke="#50bcd3" stroke-width="1.51"/><path d="M939,612L988,555L948,478Z" fill="#49bfbe" stroke="#49bfbe" stroke-width="1.51"/><path d="M763,267L701,192L717,278Z" fill="#51b8d4" stroke="#51b8d4" stroke-width="1.51"/><path d="M620,293L463,336L500,407Z" fill="#51b6d4" stroke="#51b6d4" stroke-width="1.51"/><path d="M780,184L701,192L763,267Z" fill="#51b5d3" stroke="#51b5d3" stroke-width="1.51"/><path d="M701,192L565,237L620,293Z" fill="#52b3d5" stroke="#52b3d5" stroke-width="1.51"/><path d="M500,407L382,410L449,504Z" fill="#50b9d5" stroke="#50b9d5" stroke-width="1.51"/><path d="M565,237L463,336L620,293Z" fill="#52b3d5" stroke="#52b3d5" stroke-width="1.51"/><path d="M829,189L763,267L807,325Z" fill="#50b7d0" stroke="#50b7d0" stroke-width="1.51"/><path d="M988,555L1019,520L948,478Z" fill="#4ac0bf" stroke="#4ac0bf" stroke-width="1.51"/><path d="M978,425L1002,332L931,304Z" fill="#4dbbc5" stroke="#4dbbc5" stroke-width="1.51"/><path d="M1141,609L1019,520L988,555Z" fill="#48bdb8" stroke="#48bdb8" stroke-width="1.51"/><path d="M892,220L829,189L807,325Z" fill="#50b6ce" stroke="#50b6ce" stroke-width="1.51"/><path d="M596,754L660,647L614,643Z" fill="#4bbcc1" stroke="#4bbcc1" stroke-width="1.51"/><path d="M780,184L715,168L701,192Z" fill="#51b3d4" stroke="#51b3d4" stroke-width="1.51"/><path d="M701,192L603,150L565,237Z" fill="#52afd5" stroke="#52afd5" stroke-width="1.51"/><path d="M623,95L715,168L663,67Z" fill="#53abd5" stroke="#53abd5" stroke-width="1.51"/><path d="M931,304L892,220L807,325Z" fill="#4fb8cc" stroke="#4fb8cc" stroke-width="1.51"/><path d="M516,647L596,754L614,643Z" fill="#4cb9c1" stroke="#4cb9c1" stroke-width="1.51"/><path d="M939,612L1022,670L988,555Z" fill="#48bdb7" stroke="#48bdb7" stroke-width="1.51"/><path d="M843,697L954,675L939,612Z" fill="#48bdb7" stroke="#48bdb7" stroke-width="1.51"/><path d="M879,744L954,675L843,697Z" fill="#47bcb5" stroke="#47bcb5" stroke-width="1.51"/><path d="M879,744L843,697L804,728Z" fill="#48bdb6" stroke="#48bdb6" stroke-width="1.51"/><path d="M770,832L879,744L804,728Z" fill="#48bcb4" stroke="#48bcb4" stroke-width="1.51"/><path d="M1040,386L1002,332L978,425Z" fill="#4cbdc3" stroke="#4cbdc3" stroke-width="1.51"/><path d="M931,304L937,232L892,220Z" fill="#50b5c9" stroke="#50b5c9" stroke-width="1.51"/><path d="M1002,332L937,232L931,304Z" fill="#4eb7c7" stroke="#4eb7c7" stroke-width="1.51"/><path d="M892,220L906,165L829,189Z" fill="#51b1cc" stroke="#51b1cc" stroke-width="1.51"/><path d="M516,647L542,756L596,754Z" fill="#4cb7be" stroke="#4cb7be" stroke-width="1.51"/><path d="M396,574L446,652L463,530Z" fill="#50b5ca" stroke="#50b5ca" stroke-width="1.51"/><path d="M994,165L906,165L937,232Z" fill="#50afc8" stroke="#50afc8" stroke-width="1.51"/><path d="M1106,440L1040,386L978,425Z" fill="#4bbfc1" stroke="#4bbfc1" stroke-width="1.51"/><path d="M463,336L382,410L500,407Z" fill="#51b4d5" stroke="#51b4d5" stroke-width="1.51"/><path d="M449,504L396,574L463,530Z" fill="#50b7ce" stroke="#50b7ce" stroke-width="1.51"/><path d="M479,211L430,308L463,336Z" fill="#52add5" stroke="#52add5" stroke-width="1.51"/><path d="M652,838L770,832L689,776Z" fill="#48bbb6" stroke="#48bbb6" stroke-width="1.51"/><path d="M446,652L542,756L516,647Z" fill="#4eb5c1" stroke="#4eb5c1" stroke-width="1.51"/><path d="M306,529L396,574L449,504Z" fill="#50b3ce" stroke="#50b3ce" stroke-width="1.51"/><path d="M715,168L603,150L701,192Z" fill="#52b0d5" stroke="#52b0d5" stroke-width="1.51"/><path d="M565,237L479,211L463,336Z" fill="#52aed5" stroke="#52aed5" stroke-width="1.51"/><path d="M430,308L382,410L463,336Z" fill="#52b1d5" stroke="#52b1d5" stroke-width="1.51"/><path d="M603,150L479,211L565,237Z" fill="#52acd5" stroke="#52acd5" stroke-width="1.51"/><path d="M937,232L906,165L892,220Z" fill="#50b1ca" stroke="#50b1ca" stroke-width="1.51"/><path d="M829,189L863,48L780,184Z" fill="#52aecf" stroke="#52aecf" stroke-width="1.51"/><path d="M715,168L623,95L603,150Z" fill="#53acd5" stroke="#53acd5" stroke-width="1.51"/><path d="M1043,247L937,232L1002,332Z" fill="#4fb5c5" stroke="#4fb5c5" stroke-width="1.51"/><path d="M954,675L1022,670L939,612Z" fill="#48bcb5" stroke="#48bcb5" stroke-width="1.51"/><path d="M1019,520L1106,440L978,425Z" fill="#4ac0c1" stroke="#4ac0c1" stroke-width="1.51"/><path d="M1022,721L1022,670L954,675Z" fill="#47bab0" stroke="#47bab0" stroke-width="1.51"/><path d="M689,776L770,832L804,728Z" fill="#48bcb7" stroke="#48bcb7" stroke-width="1.51"/><path d="M879,744L912,786L954,675Z" fill="#47bab1" stroke="#47bab1" stroke-width="1.51"/><path d="M652,838L689,776L596,754Z" fill="#4abab8" stroke="#4abab8" stroke-width="1.51"/><path d="M877,861L912,786L879,744Z" fill="#46b9ad" stroke="#46b9ad" stroke-width="1.51"/><path d="M606,870L652,838L596,754Z" fill="#4ab7b5" stroke="#4ab7b5" stroke-width="1.51"/><path d="M1131,528L1106,440L1019,520Z" fill="#48bebb" stroke="#48bebb" stroke-width="1.51"/><path d="M1103,346L1043,247L1002,332Z" fill="#4db6c1" stroke="#4db6c1" stroke-width="1.51"/><path d="M1141,609L1131,528L1019,520Z" fill="#48bcb6" stroke="#48bcb6" stroke-width="1.51"/><path d="M912,786L1022,721L954,675Z" fill="#47b9af" stroke="#47b9af" stroke-width="1.51"/><path d="M603,150L465,144L479,211Z" fill="#53a7d5" stroke="#53a7d5" stroke-width="1.51"/><path d="M663,67L715,168L761,23Z" fill="#52acd5" stroke="#52acd5" stroke-width="1.51"/><path d="M1103,346L1002,332L1040,386Z" fill="#4cbac1" stroke="#4cbac1" stroke-width="1.51"/><path d="M1106,440L1103,346L1040,386Z" fill="#4bbcbf" stroke="#4bbcbf" stroke-width="1.51"/><path d="M430,308L349,318L382,410Z" fill="#52aed5" stroke="#52aed5" stroke-width="1.51"/><path d="M292,577L360,676L396,574Z" fill="#50b0c8" stroke="#50b0c8" stroke-width="1.51"/><path d="M388,218L349,318L430,308Z" fill="#53a9d5" stroke="#53a9d5" stroke-width="1.51"/><path d="M761,23L715,168L780,184Z" fill="#52afd3" stroke="#52afd3" stroke-width="1.51"/><path d="M912,786L1041,800L1022,721Z" fill="#46b8aa" stroke="#46b8aa" stroke-width="1.51"/><path d="M877,861L929,828L912,786Z" fill="#45b8aa" stroke="#45b8aa" stroke-width="1.51"/><path d="M877,861L879,744L770,832Z" fill="#46baaf" stroke="#46baaf" stroke-width="1.51"/><path d="M1043,247L994,165L937,232Z" fill="#50b0c5" stroke="#50b0c5" stroke-width="1.51"/><path d="M906,165L863,48L829,189Z" fill="#51accc" stroke="#51accc" stroke-width="1.51"/><path d="M962,83L994,165L1082,119Z" fill="#51a9c4" stroke="#51a9c4" stroke-width="1.51"/><path d="M652,838L722,898L770,832Z" fill="#47bab3" stroke="#47bab3" stroke-width="1.51"/><path d="M542,756L606,870L596,754Z" fill="#4bb6b8" stroke="#4bb6b8" stroke-width="1.51"/><path d="M496,875L606,870L542,756Z" fill="#4bb3b4" stroke="#4bb3b4" stroke-width="1.51"/><path d="M1141,609L988,555L1022,670Z" fill="#47bbb3" stroke="#47bbb3" stroke-width="1.51"/><path d="M1106,440L1183,377L1103,346Z" fill="#4bbbbc" stroke="#4bbbbc" stroke-width="1.51"/><path d="M446,652L458,796L542,756Z" fill="#4db3bd" stroke="#4db3bd" stroke-width="1.51"/><path d="M396,574L360,676L446,652Z" fill="#50b1c6" stroke="#50b1c6" stroke-width="1.51"/><path d="M306,529L449,504L382,410Z" fill="#51b5d2" stroke="#51b5d2" stroke-width="1.51"/><path d="M395,764L458,796L446,652Z" fill="#4eb0bd" stroke="#4eb0bd" stroke-width="1.51"/><path d="M479,211L388,218L430,308Z" fill="#53a9d5" stroke="#53a9d5" stroke-width="1.51"/><path d="M540,63L465,144L603,150Z" fill="#53a5d5" stroke="#53a5d5" stroke-width="1.51"/><path d="M540,63L603,150L623,95Z" fill="#53a7d5" stroke="#53a7d5" stroke-width="1.51"/><path d="M842,963L877,861L770,832Z" fill="#45b8aa" stroke="#45b8aa" stroke-width="1.51"/><path d="M349,318L310,396L382,410Z" fill="#52aed5" stroke="#52aed5" stroke-width="1.51"/><path d="M310,396L306,529L382,410Z" fill="#51b3d5" stroke="#51b3d5" stroke-width="1.51"/><path d="M349,318L266,286L310,396Z" fill="#53a9d5" stroke="#53a9d5" stroke-width="1.51"/><path d="M390,167L388,218L479,211Z" fill="#53a5d5" stroke="#53a5d5" stroke-width="1.51"/><path d="M654,909L722,898L652,838Z" fill="#48b8b0" stroke="#48b8b0" stroke-width="1.51"/><path d="M360,676L395,764L446,652Z" fill="#4fafc0" stroke="#4fafc0" stroke-width="1.51"/><path d="M606,870L654,909L652,838Z" fill="#49b6b1" stroke="#49b6b1" stroke-width="1.51"/><path d="M591,923L654,909L606,870Z" fill="#48b5af" stroke="#48b5af" stroke-width="1.51"/><path d="M496,875L542,756L458,796Z" fill="#4cb1b6" stroke="#4cb1b6" stroke-width="1.51"/><path d="M1133,707L1022,670L1022,721Z" fill="#46b8ac" stroke="#46b8ac" stroke-width="1.51"/><path d="M1133,707L1141,609L1022,670Z" fill="#46b9ac" stroke="#46b9ac" stroke-width="1.51"/><path d="M306,529L292,577L396,574Z" fill="#51b0cc" stroke="#51b0cc" stroke-width="1.51"/><path d="M360,676L332,794L395,764Z" fill="#4facbd" stroke="#4facbd" stroke-width="1.51"/><path d="M263,590L292,577L306,529Z" fill="#51aecb" stroke="#51aecb" stroke-width="1.51"/><path d="M962,83L863,48L906,165Z" fill="#51aaca" stroke="#51aaca" stroke-width="1.51"/><path d="M465,144L390,167L479,211Z" fill="#53a4d5" stroke="#53a4d5" stroke-width="1.51"/><path d="M592,-2L540,63L623,95Z" fill="#53a3d5" stroke="#53a3d5" stroke-width="1.51"/><path d="M592,-2L623,95L663,67Z" fill="#53a5d5" stroke="#53a5d5" stroke-width="1.51"/><path d="M440,69L390,167L465,144Z" fill="#53a0d5" stroke="#53a0d5" stroke-width="1.51"/><path d="M388,218L316,255L349,318Z" fill="#53a6d5" stroke="#53a6d5" stroke-width="1.51"/><path d="M863,48L761,23L780,184Z" fill="#52aad0" stroke="#52aad0" stroke-width="1.51"/><path d="M929,828L1041,800L912,786Z" fill="#45b7a9" stroke="#45b7a9" stroke-width="1.51"/><path d="M986,923L1041,800L929,828Z" fill="#44b5a4" stroke="#44b5a4" stroke-width="1.51"/><path d="M1082,119L994,165L1043,247Z" fill="#50adc2" stroke="#50adc2" stroke-width="1.51"/><path d="M994,165L962,83L906,165Z" fill="#51acc7" stroke="#51acc7" stroke-width="1.51"/><path d="M1103,346L1120,247L1043,247Z" fill="#4eb3bf" stroke="#4eb3bf" stroke-width="1.51"/><path d="M1182,310L1120,247L1103,346Z" fill="#4db4bc" stroke="#4db4bc" stroke-width="1.51"/><path d="M1183,377L1106,440L1199,451Z" fill="#49bcba" stroke="#49bcba" stroke-width="1.51"/><path d="M303,169L316,255L388,218Z" fill="#53a1d5" stroke="#53a1d5" stroke-width="1.51"/><path d="M213,497L263,590L306,529Z" fill="#52accd" stroke="#52accd" stroke-width="1.51"/><path d="M485,902L496,875L414,924Z" fill="#4badb0" stroke="#4badb0" stroke-width="1.51"/><path d="M723,1023L842,963L722,898Z" fill="#45b7a8" stroke="#45b7a8" stroke-width="1.51"/><path d="M496,875L591,923L606,870Z" fill="#4ab2b0" stroke="#4ab2b0" stroke-width="1.51"/><path d="M1199,451L1106,440L1131,528Z" fill="#49beb9" stroke="#49beb9" stroke-width="1.51"/><path d="M949,-6L834,15L863,48Z" fill="#52a4cb" stroke="#52a4cb" stroke-width="1.51"/><path d="M863,48L834,15L761,23Z" fill="#53a6cf" stroke="#53a6cf" stroke-width="1.51"/><path d="M292,577L247,669L360,676Z" fill="#51acc5" stroke="#51acc5" stroke-width="1.51"/><path d="M213,497L306,529L310,396Z" fill="#52afd3" stroke="#52afd3" stroke-width="1.51"/><path d="M1141,768L1133,707L1022,721Z" fill="#45b6a7" stroke="#45b6a7" stroke-width="1.51"/><path d="M1193,609L1199,451L1131,528Z" fill="#47bbb3" stroke="#47bbb3" stroke-width="1.51"/><path d="M1193,609L1131,528L1141,609Z" fill="#47bab0" stroke="#47bab0" stroke-width="1.51"/><path d="M1183,377L1182,310L1103,346Z" fill="#4cb7bb" stroke="#4cb7bb" stroke-width="1.51"/><path d="M1120,247L1082,119L1043,247Z" fill="#4faec0" stroke="#4faec0" stroke-width="1.51"/><path d="M1250,321L1182,310L1183,377Z" fill="#4bb5b8" stroke="#4bb5b8" stroke-width="1.51"/><path d="M496,875L485,902L591,923Z" fill="#4bb0af" stroke="#4bb0af" stroke-width="1.51"/><path d="M414,924L496,875L458,796Z" fill="#4cadb2" stroke="#4cadb2" stroke-width="1.51"/><path d="M332,794L458,796L395,764Z" fill="#4eadb9" stroke="#4eadb9" stroke-width="1.51"/><path d="M1209,657L1193,609L1141,609Z" fill="#46b8ab" stroke="#46b8ab" stroke-width="1.51"/><path d="M316,255L266,286L349,318Z" fill="#53a6d5" stroke="#53a6d5" stroke-width="1.51"/><path d="M265,256L266,286L316,255Z" fill="#53a3d5" stroke="#53a3d5" stroke-width="1.51"/><path d="M303,169L265,256L316,255Z" fill="#53a0d5" stroke="#53a0d5" stroke-width="1.51"/><path d="M540,63L440,69L465,144Z" fill="#53a0d5" stroke="#53a0d5" stroke-width="1.51"/><path d="M478,-7L440,69L540,63Z" fill="#539cd5" stroke="#539cd5" stroke-width="1.51"/><path d="M713,-62L592,-2L663,67Z" fill="#53a2d4" stroke="#53a2d4" stroke-width="1.51"/><path d="M713,-62L663,67L761,23Z" fill="#53a6d4" stroke="#53a6d4" stroke-width="1.51"/><path d="M834,15L800,-13L761,23Z" fill="#53a5d0" stroke="#53a5d0" stroke-width="1.51"/><path d="M837,-83L800,-13L834,15Z" fill="#53a1ce" stroke="#53a1ce" stroke-width="1.51"/><path d="M247,669L332,794L360,676Z" fill="#50aabf" stroke="#50aabf" stroke-width="1.51"/><path d="M978,930L986,923L929,828Z" fill="#44b4a2" stroke="#44b4a2" stroke-width="1.51"/><path d="M722,898L842,963L770,832Z" fill="#46b8ac" stroke="#46b8ac" stroke-width="1.51"/><path d="M723,1023L722,898L654,909Z" fill="#46b7ac" stroke="#46b7ac" stroke-width="1.51"/><path d="M202,438L213,497L310,396Z" fill="#52aed5" stroke="#52aed5" stroke-width="1.51"/><path d="M303,169L388,218L390,167Z" fill="#53a1d5" stroke="#53a1d5" stroke-width="1.51"/><path d="M1154,170L1082,119L1120,247Z" fill="#4fabbe" stroke="#4fabbe" stroke-width="1.51"/><path d="M962,83L949,-6L863,48Z" fill="#52a5c9" stroke="#52a5c9" stroke-width="1.51"/><path d="M263,590L247,669L292,577Z" fill="#51abc7" stroke="#51abc7" stroke-width="1.51"/><path d="M202,438L310,396L266,286Z" fill="#53a9d5" stroke="#53a9d5" stroke-width="1.51"/><path d="M1133,707L1209,657L1141,609Z" fill="#46b7a9" stroke="#46b7a9" stroke-width="1.51"/><path d="M1041,800L1141,768L1022,721Z" fill="#45b6a6" stroke="#45b6a6" stroke-width="1.51"/><path d="M1140,800L1141,768L1041,800Z" fill="#44b5a1" stroke="#44b5a1" stroke-width="1.51"/><path d="M150,648L247,669L263,590Z" fill="#51a8c5" stroke="#51a8c5" stroke-width="1.51"/><path d="M343,93L303,169L390,167Z" fill="#539dd5" stroke="#539dd5" stroke-width="1.51"/><path d="M167,429L202,438L151,358Z" fill="#53a8d5" stroke="#53a8d5" stroke-width="1.51"/><path d="M1328,502L1271,401L1199,451Z" fill="#48bcb4" stroke="#48bcb4" stroke-width="1.51"/><path d="M1202,713L1209,657L1133,707Z" fill="#45b6a5" stroke="#45b6a5" stroke-width="1.51"/><path d="M978,930L929,828L877,861Z" fill="#45b6a5" stroke="#45b6a5" stroke-width="1.51"/><path d="M230,765L321,809L332,794Z" fill="#4fa7b9" stroke="#4fa7b9" stroke-width="1.51"/><path d="M332,794L414,924L458,796Z" fill="#4dabb4" stroke="#4dabb4" stroke-width="1.51"/><path d="M842,963L978,930L877,861Z" fill="#44b5a3" stroke="#44b5a3" stroke-width="1.51"/><path d="M1082,119L1016,36L962,83Z" fill="#51a6c3" stroke="#51a6c3" stroke-width="1.51"/><path d="M1082,119L1091,21L1016,36Z" fill="#51a3c1" stroke="#51a3c1" stroke-width="1.51"/><path d="M1214,223L1154,170L1120,247Z" fill="#4facbb" stroke="#4facbb" stroke-width="1.51"/><path d="M1016,36L949,-6L962,83Z" fill="#52a4c6" stroke="#52a4c6" stroke-width="1.51"/><path d="M1141,768L1202,713L1133,707Z" fill="#45b5a4" stroke="#45b5a4" stroke-width="1.51"/><path d="M1153,908L1140,800L1041,800Z" fill="#43b39e" stroke="#43b39e" stroke-width="1.51"/><path d="M1187,809L1140,800L1153,908Z" fill="#42b19a" stroke="#42b19a" stroke-width="1.51"/><path d="M800,-13L713,-62L761,23Z" fill="#53a4d2" stroke="#53a4d2" stroke-width="1.51"/><path d="M432,-9L343,93L440,69Z" fill="#5399d5" stroke="#5399d5" stroke-width="1.51"/><path d="M799,-111L713,-62L800,-13Z" fill="#53a0d2" stroke="#53a0d2" stroke-width="1.51"/><path d="M440,69L343,93L390,167Z" fill="#539dd5" stroke="#539dd5" stroke-width="1.51"/><path d="M478,-7L540,63L592,-2Z" fill="#539ed5" stroke="#539ed5" stroke-width="1.51"/><path d="M1187,809L1202,713L1141,768Z" fill="#43b4a0" stroke="#43b4a0" stroke-width="1.51"/><path d="M568,-80L478,-7L592,-2Z" fill="#539ad4" stroke="#539ad4" stroke-width="1.51"/><path d="M485,902L525,1002L591,923Z" fill="#49afac" stroke="#49afac" stroke-width="1.51"/><path d="M634,1036L723,1023L654,909Z" fill="#46b4a7" stroke="#46b4a7" stroke-width="1.51"/><path d="M321,809L414,924L332,794Z" fill="#4ea8b5" stroke="#4ea8b5" stroke-width="1.51"/><path d="M151,358L202,438L266,286Z" fill="#53a6d5" stroke="#53a6d5" stroke-width="1.51"/><path d="M303,169L267,163L265,256Z" fill="#539dd5" stroke="#539dd5" stroke-width="1.51"/><path d="M343,93L267,163L303,169Z" fill="#539ad5" stroke="#539ad5" stroke-width="1.51"/><path d="M634,1036L654,909L591,923Z" fill="#48b3ab" stroke="#48b3ab" stroke-width="1.51"/><path d="M842,963L945,1010L978,930Z" fill="#43b39e" stroke="#43b39e" stroke-width="1.51"/><path d="M1182,310L1214,223L1120,247Z" fill="#4db0bb" stroke="#4db0bb" stroke-width="1.51"/><path d="M1271,401L1250,321L1183,377Z" fill="#4bb6b6" stroke="#4bb6b6" stroke-width="1.51"/><path d="M1271,401L1183,377L1199,451Z" fill="#49bab7" stroke="#49bab7" stroke-width="1.51"/><path d="M1250,321L1214,223L1182,310Z" fill="#4db1b8" stroke="#4db1b8" stroke-width="1.51"/><path d="M1158,12L1091,21L1082,119Z" fill="#51a2be" stroke="#51a2be" stroke-width="1.51"/><path d="M1306,528L1199,451L1193,609Z" fill="#47bab0" stroke="#47bab0" stroke-width="1.51"/><path d="M1306,528L1193,609L1309,543Z" fill="#46b8ab" stroke="#46b8ab" stroke-width="1.51"/><path d="M202,438L167,429L213,497Z" fill="#52acd4" stroke="#52acd4" stroke-width="1.51"/><path d="M120,590L150,648L263,590Z" fill="#51a7c8" stroke="#51a7c8" stroke-width="1.51"/><path d="M151,358L266,286L149,226Z" fill="#53a0d5" stroke="#53a0d5" stroke-width="1.51"/><path d="M99,225L149,226L78,145Z" fill="#5395d5" stroke="#5395d5" stroke-width="1.51"/><path d="M478,-7L432,-9L440,69Z" fill="#5399d5" stroke="#5399d5" stroke-width="1.51"/><path d="M399,-86L432,-9L478,-7Z" fill="#5394d5" stroke="#5394d5" stroke-width="1.51"/><path d="M422,988L525,1002L485,902Z" fill="#4aabaa" stroke="#4aabaa" stroke-width="1.51"/><path d="M970,-145L837,-83L949,-6Z" fill="#539cc9" stroke="#539cc9" stroke-width="1.51"/><path d="M949,-6L837,-83L834,15Z" fill="#53a1cb" stroke="#53a1cb" stroke-width="1.51"/><path d="M552,1019L634,1036L591,923Z" fill="#48b0a8" stroke="#48b0a8" stroke-width="1.51"/><path d="M289,971L422,988L414,924Z" fill="#4ca6ab" stroke="#4ca6ab" stroke-width="1.51"/><path d="M247,669L230,765L332,794Z" fill="#50a7bd" stroke="#50a7bd" stroke-width="1.51"/><path d="M149,746L230,765L247,669Z" fill="#50a4be" stroke="#50a4be" stroke-width="1.51"/><path d="M525,1002L552,1019L591,923Z" fill="#49afa9" stroke="#49afa9" stroke-width="1.51"/><path d="M695,-149L568,-80L713,-62Z" fill="#539bd4" stroke="#539bd4" stroke-width="1.51"/><path d="M713,-62L568,-80L592,-2Z" fill="#539dd4" stroke="#539dd4" stroke-width="1.51"/><path d="M1140,800L1187,809L1141,768Z" fill="#43b39f" stroke="#43b39f" stroke-width="1.51"/><path d="M1287,641L1193,609L1209,657Z" fill="#45b6a7" stroke="#45b6a7" stroke-width="1.51"/><path d="M1066,951L1041,800L986,923Z" fill="#43b39e" stroke="#43b39e" stroke-width="1.51"/><path d="M723,1023L823,1043L842,963Z" fill="#44b5a1" stroke="#44b5a1" stroke-width="1.51"/><path d="M978,930L985,995L986,923Z" fill="#42b29c" stroke="#42b29c" stroke-width="1.51"/><path d="M634,1036L823,1043L723,1023Z" fill="#44b5a3" stroke="#44b5a3" stroke-width="1.51"/><path d="M120,590L263,590L213,497Z" fill="#52a9cc" stroke="#52a9cc" stroke-width="1.51"/><path d="M149,226L266,286L265,256Z" fill="#539fd5" stroke="#539fd5" stroke-width="1.51"/><path d="M823,1043L945,1010L842,963Z" fill="#43b39e" stroke="#43b39e" stroke-width="1.51"/><path d="M1158,12L1082,119L1154,170Z" fill="#50a5bd" stroke="#50a5bd" stroke-width="1.51"/><path d="M1016,36L1056,-18L949,-6Z" fill="#52a0c4" stroke="#52a0c4" stroke-width="1.51"/><path d="M945,1010L985,995L978,930Z" fill="#42b29a" stroke="#42b29a" stroke-width="1.51"/><path d="M1334,252L1311,223L1250,321Z" fill="#4cadb3" stroke="#4cadb3" stroke-width="1.51"/><path d="M1287,641L1209,657L1202,713Z" fill="#45b5a4" stroke="#45b5a4" stroke-width="1.51"/><path d="M837,-83L799,-111L800,-13Z" fill="#539fcf" stroke="#539fcf" stroke-width="1.51"/><path d="M970,-145L799,-111L837,-83Z" fill="#539acc" stroke="#539acc" stroke-width="1.51"/><path d="M985,995L1066,951L986,923Z" fill="#42b19a" stroke="#42b19a" stroke-width="1.51"/><path d="M1309,721L1287,641L1202,713Z" fill="#44b4a0" stroke="#44b4a0" stroke-width="1.51"/><path d="M1287,641L1309,543L1193,609Z" fill="#45b7a9" stroke="#45b7a9" stroke-width="1.51"/><path d="M1091,21L1056,-18L1016,36Z" fill="#52a0c1" stroke="#52a0c1" stroke-width="1.51"/><path d="M414,924L422,988L485,902Z" fill="#4caaad" stroke="#4caaad" stroke-width="1.51"/><path d="M525,1002L422,988L552,1019Z" fill="#49aba7" stroke="#49aba7" stroke-width="1.51"/><path d="M294,894L414,924L321,809Z" fill="#4ea7b2" stroke="#4ea7b2" stroke-width="1.51"/><path d="M125,515L213,497L167,429Z" fill="#52aad2" stroke="#52aad2" stroke-width="1.51"/><path d="M82,381L125,515L167,429Z" fill="#52a8d5" stroke="#52a8d5" stroke-width="1.51"/><path d="M244,839L321,809L230,765Z" fill="#4fa5b8" stroke="#4fa5b8" stroke-width="1.51"/><path d="M244,839L294,894L321,809Z" fill="#4fa5b4" stroke="#4fa5b4" stroke-width="1.51"/><path d="M161,810L244,839L230,765Z" fill="#50a2b8" stroke="#50a2b8" stroke-width="1.51"/><path d="M1309,543L1328,502L1306,528Z" fill="#46b8ac" stroke="#46b8ac" stroke-width="1.51"/><path d="M1306,528L1328,502L1199,451Z" fill="#47bab0" stroke="#47bab0" stroke-width="1.51"/><path d="M1263,78L1154,170L1214,223Z" fill="#4fa7b9" stroke="#4fa7b9" stroke-width="1.51"/><path d="M1349,569L1328,502L1309,543Z" fill="#46b7a9" stroke="#46b7a9" stroke-width="1.51"/><path d="M137,945L269,896L244,839Z" fill="#4fa0b1" stroke="#4fa0b1" stroke-width="1.51"/><path d="M125,515L120,590L213,497Z" fill="#52a7ce" stroke="#52a7ce" stroke-width="1.51"/><path d="M1187,809L1309,721L1202,713Z" fill="#43b39e" stroke="#43b39e" stroke-width="1.51"/><path d="M1066,951L1153,908L1041,800Z" fill="#42b29b" stroke="#42b29b" stroke-width="1.51"/><path d="M1076,991L1153,908L1066,951Z" fill="#40af95" stroke="#40af95" stroke-width="1.51"/><path d="M294,894L289,971L414,924Z" fill="#4da5ae" stroke="#4da5ae" stroke-width="1.51"/><path d="M244,839L269,896L294,894Z" fill="#4fa3b2" stroke="#4fa3b2" stroke-width="1.51"/><path d="M149,746L247,669L150,648Z" fill="#51a4c1" stroke="#51a4c1" stroke-width="1.51"/><path d="M799,-111L695,-149L713,-62Z" fill="#539dd4" stroke="#539dd4" stroke-width="1.51"/><path d="M568,-80L522,-122L478,-7Z" fill="#5296d4" stroke="#5296d4" stroke-width="1.51"/><path d="M970,-145L695,-149L799,-111Z" fill="#5399cf" stroke="#5399cf" stroke-width="1.51"/><path d="M267,163L149,226L265,256Z" fill="#539cd5" stroke="#539cd5" stroke-width="1.51"/><path d="M151,358L82,381L167,429Z" fill="#53a4d5" stroke="#53a4d5" stroke-width="1.51"/><path d="M161,102L267,163L213,21Z" fill="#5292d5" stroke="#5292d5" stroke-width="1.51"/><path d="M695,-149L522,-122L568,-80Z" fill="#5397d4" stroke="#5397d4" stroke-width="1.51"/><path d="M432,-9L301,-51L343,93Z" fill="#5394d5" stroke="#5394d5" stroke-width="1.51"/><path d="M985,995L1076,991L1066,951Z" fill="#40b096" stroke="#40b096" stroke-width="1.51"/><path d="M945,1010L1076,991L985,995Z" fill="#41b097" stroke="#41b097" stroke-width="1.51"/><path d="M1300,998L1076,991L945,1010Z" fill="#3fae91" stroke="#3fae91" stroke-width="1.51"/><path d="M95,638L149,746L150,648Z" fill="#51a2c2" stroke="#51a2c2" stroke-width="1.51"/><path d="M1091,21L1066,-66L1056,-18Z" fill="#529dc0" stroke="#529dc0" stroke-width="1.51"/><path d="M1056,-18L1066,-66L949,-6Z" fill="#529ec3" stroke="#529ec3" stroke-width="1.51"/><path d="M1230,29L1158,12L1154,170Z" fill="#50a2ba" stroke="#50a2ba" stroke-width="1.51"/><path d="M1311,223L1214,223L1250,321Z" fill="#4daeb5" stroke="#4daeb5" stroke-width="1.51"/><path d="M1287,641L1349,569L1309,543Z" fill="#45b6a7" stroke="#45b6a7" stroke-width="1.51"/><path d="M1382,639L1349,569L1287,641Z" fill="#44b5a2" stroke="#44b5a2" stroke-width="1.51"/><path d="M1336,760L1309,721L1309,827Z" fill="#41b198" stroke="#41b198" stroke-width="1.51"/><path d="M1158,12L1066,-66L1091,21Z" fill="#519dbf" stroke="#519dbf" stroke-width="1.51"/><path d="M1334,252L1250,321L1401,289Z" fill="#4caeb1" stroke="#4caeb1" stroke-width="1.51"/><path d="M1250,321L1271,401L1389,405Z" fill="#49b6b2" stroke="#49b6b2" stroke-width="1.51"/><path d="M522,-122L399,-86L478,-7Z" fill="#5293d5" stroke="#5293d5" stroke-width="1.51"/><path d="M48,313L82,381L151,358Z" fill="#539fd4" stroke="#539fd4" stroke-width="1.51"/><path d="M72,546L95,638L120,590Z" fill="#52a3c9" stroke="#52a3c9" stroke-width="1.51"/><path d="M120,590L95,638L150,648Z" fill="#52a3c6" stroke="#52a3c6" stroke-width="1.51"/><path d="M72,546L120,590L125,515Z" fill="#52a4cc" stroke="#52a4cc" stroke-width="1.51"/><path d="M1311,223L1324,183L1214,223Z" fill="#4daab5" stroke="#4daab5" stroke-width="1.51"/><path d="M1389,405L1271,401L1328,502Z" fill="#48b9b1" stroke="#48b9b1" stroke-width="1.51"/><path d="M29,501L72,546L125,515Z" fill="#52a3ce" stroke="#52a3ce" stroke-width="1.51"/><path d="M149,746L161,810L230,765Z" fill="#50a2ba" stroke="#50a2ba" stroke-width="1.51"/><path d="M69,799L161,810L149,746Z" fill="#519eb9" stroke="#519eb9" stroke-width="1.51"/><path d="M269,896L289,971L294,894Z" fill="#4ea2ae" stroke="#4ea2ae" stroke-width="1.51"/><path d="M422,988L196,1044L552,1019Z" fill="#4ba5a6" stroke="#4ba5a6" stroke-width="1.51"/><path d="M552,1019L196,1044L634,1036Z" fill="#4aa8a5" stroke="#4aa8a5" stroke-width="1.51"/><path d="M217,1025L289,971L269,896Z" fill="#4ea0ab" stroke="#4ea0ab" stroke-width="1.51"/><path d="M1066,-66L970,-145L949,-6Z" fill="#529bc5" stroke="#529bc5" stroke-width="1.51"/><path d="M1334,252L1324,183L1311,223Z" fill="#4da9b2" stroke="#4da9b2" stroke-width="1.51"/><path d="M149,226L99,225L151,358Z" fill="#539bd5" stroke="#539bd5" stroke-width="1.51"/><path d="M161,102L149,226L267,163Z" fill="#5396d5" stroke="#5396d5" stroke-width="1.51"/><path d="M1100,-105L1055,-111L1066,-66Z" fill="#5297c0" stroke="#5297c0" stroke-width="1.51"/><path d="M1066,-66L1055,-111L970,-145Z" fill="#5297c3" stroke="#5297c3" stroke-width="1.51"/><path d="M1324,183L1263,78L1214,223Z" fill="#4fa6b5" stroke="#4fa6b5" stroke-width="1.51"/><path d="M1421,465L1389,405L1328,502Z" fill="#46b9ae" stroke="#46b9ae" stroke-width="1.51"/><path d="M1334,252L1434,267L1324,183Z" fill="#4caaaf" stroke="#4caaaf" stroke-width="1.51"/><path d="M399,-86L301,-51L432,-9Z" fill="#5290d5" stroke="#5290d5" stroke-width="1.51"/><path d="M213,21L267,163L343,93Z" fill="#5395d5" stroke="#5395d5" stroke-width="1.51"/><path d="M1100,-105L1066,-66L1153,-97Z" fill="#5297be" stroke="#5297be" stroke-width="1.51"/><path d="M1263,78L1230,29L1154,170Z" fill="#50a2b8" stroke="#50a2b8" stroke-width="1.51"/><path d="M161,102L153,106L149,226Z" fill="#5393d5" stroke="#5393d5" stroke-width="1.51"/><path d="M78,82L153,106L110,0Z" fill="#528bd5" stroke="#528bd5" stroke-width="1.51"/><path d="M1349,569L1421,465L1328,502Z" fill="#45b7aa" stroke="#45b7aa" stroke-width="1.51"/><path d="M1309,721L1382,639L1287,641Z" fill="#43b39f" stroke="#43b39f" stroke-width="1.51"/><path d="M1309,827L1309,721L1187,809Z" fill="#42b199" stroke="#42b199" stroke-width="1.51"/><path d="M1309,827L1187,809L1287,910Z" fill="#41af94" stroke="#41af94" stroke-width="1.51"/><path d="M301,-51L213,21L343,93Z" fill="#5290d5" stroke="#5290d5" stroke-width="1.51"/><path d="M1426,677L1382,639L1309,721Z" fill="#42b29c" stroke="#42b29c" stroke-width="1.51"/><path d="M1287,910L1187,809L1153,908Z" fill="#41af95" stroke="#41af95" stroke-width="1.51"/><path d="M1055,-111L1100,-105L970,-145Z" fill="#5296c2" stroke="#5296c2" stroke-width="1.51"/><path d="M1153,-97L1066,-66L1158,12Z" fill="#519abd" stroke="#519abd" stroke-width="1.51"/><path d="M301,-51L273,-54L213,21Z" fill="#528cd5" stroke="#528cd5" stroke-width="1.51"/><path d="M299,-90L273,-54L301,-51Z" fill="#518ad5" stroke="#518ad5" stroke-width="1.51"/><path d="M299,-90L301,-51L399,-86Z" fill="#528cd5" stroke="#528cd5" stroke-width="1.51"/><path d="M82,381L29,501L125,515Z" fill="#53a5d3" stroke="#53a5d3" stroke-width="1.51"/><path d="M99,225L48,313L151,358Z" fill="#539cd5" stroke="#539cd5" stroke-width="1.51"/><path d="M-31,276L48,313L99,225Z" fill="#5396d5" stroke="#5396d5" stroke-width="1.51"/><path d="M37,738L69,799L149,746Z" fill="#519dbb" stroke="#519dbb" stroke-width="1.51"/><path d="M-23,564L21,679L95,638Z" fill="#529ec6" stroke="#529ec6" stroke-width="1.51"/><path d="M9,427L29,501L82,381Z" fill="#53a3d4" stroke="#53a3d4" stroke-width="1.51"/><path d="M1300,998L1199,981L1076,991Z" fill="#3eac8d" stroke="#3eac8d" stroke-width="1.51"/><path d="M1076,991L1199,981L1153,908Z" fill="#3fae92" stroke="#3fae92" stroke-width="1.51"/><path d="M1389,405L1401,289L1250,321Z" fill="#4ab2b0" stroke="#4ab2b0" stroke-width="1.51"/><path d="M1454,577L1421,465L1349,569Z" fill="#44b6a6" stroke="#44b6a6" stroke-width="1.51"/><path d="M136,-58L110,0L213,21Z" fill="#5187d5" stroke="#5187d5" stroke-width="1.51"/><path d="M522,-122L299,-90L399,-86Z" fill="#528ed5" stroke="#528ed5" stroke-width="1.51"/><path d="M275,-94L299,-90L522,-122Z" fill="#528bd5" stroke="#528bd5" stroke-width="1.51"/><path d="M1324,183L1334,118L1263,78Z" fill="#4fa3b3" stroke="#4fa3b3" stroke-width="1.51"/><path d="M1423,365L1401,289L1389,405Z" fill="#49b2ad" stroke="#49b2ad" stroke-width="1.51"/><path d="M1230,29L1153,-97L1158,12Z" fill="#519bba" stroke="#519bba" stroke-width="1.51"/><path d="M1263,78L1311,-40L1230,29Z" fill="#509cb5" stroke="#509cb5" stroke-width="1.51"/><path d="M1433,113L1334,118L1324,183Z" fill="#4ea3b0" stroke="#4ea3b0" stroke-width="1.51"/><path d="M1421,465L1423,365L1389,405Z" fill="#47b6ac" stroke="#47b6ac" stroke-width="1.51"/><path d="M-28,363L9,427L82,381Z" fill="#539ed4" stroke="#539ed4" stroke-width="1.51"/><path d="M1287,910L1340,830L1309,827Z" fill="#40ae91" stroke="#40ae91" stroke-width="1.51"/><path d="M1309,827L1340,830L1336,760Z" fill="#41af94" stroke="#41af94" stroke-width="1.51"/><path d="M1336,760L1426,677L1309,721Z" fill="#42b199" stroke="#42b199" stroke-width="1.51"/><path d="M1382,639L1454,577L1349,569Z" fill="#43b4a1" stroke="#43b4a1" stroke-width="1.51"/><path d="M1199,981L1287,910L1153,908Z" fill="#3fae90" stroke="#3fae90" stroke-width="1.51"/><path d="M1311,-40L1153,-97L1230,29Z" fill="#5198b7" stroke="#5198b7" stroke-width="1.51"/><path d="M1100,-105L1314,-109L970,-145Z" fill="#5294bd" stroke="#5294bd" stroke-width="1.51"/><path d="M299,-90L275,-94L273,-54Z" fill="#5189d5" stroke="#5189d5" stroke-width="1.51"/><path d="M78,82L78,145L153,106Z" fill="#528ed5" stroke="#528ed5" stroke-width="1.51"/><path d="M39,-128L275,-94L24,-136Z" fill="#4f7dd5" stroke="#4f7dd5" stroke-width="1.51"/><path d="M153,106L78,145L149,226Z" fill="#5292d5" stroke="#5292d5" stroke-width="1.51"/><path d="M48,313L-28,363L82,381Z" fill="#539cd4" stroke="#539cd4" stroke-width="1.51"/><path d="M153,106L161,102L110,0Z" fill="#528dd5" stroke="#528dd5" stroke-width="1.51"/><path d="M137,945L217,1025L269,896Z" fill="#4e9dac" stroke="#4e9dac" stroke-width="1.51"/><path d="M37,738L149,746L95,638Z" fill="#519fbf" stroke="#519fbf" stroke-width="1.51"/><path d="M95,638L72,546L-23,564Z" fill="#52a1ca" stroke="#52a1ca" stroke-width="1.51"/><path d="M-23,564L72,546L29,501Z" fill="#52a0cd" stroke="#52a0cd" stroke-width="1.51"/><path d="M1423,789L1426,677L1336,760Z" fill="#40af95" stroke="#40af95" stroke-width="1.51"/><path d="M1434,267L1431,283L1516,251Z" fill="#4baaaa" stroke="#4baaaa" stroke-width="1.51"/><path d="M21,679L37,738L95,638Z" fill="#529dc1" stroke="#529dc1" stroke-width="1.51"/><path d="M1423,365L1431,283L1401,289Z" fill="#4aaeac" stroke="#4aaeac" stroke-width="1.51"/><path d="M1401,289L1434,267L1334,252Z" fill="#4bacae" stroke="#4bacae" stroke-width="1.51"/><path d="M1523,345L1423,365L1542,434Z" fill="#47b2a8" stroke="#47b2a8" stroke-width="1.51"/><path d="M1426,677L1454,577L1382,639Z" fill="#42b29d" stroke="#42b29d" stroke-width="1.51"/><path d="M1431,283L1434,267L1401,289Z" fill="#4bacac" stroke="#4bacac" stroke-width="1.51"/><path d="M1523,345L1431,283L1423,365Z" fill="#49afaa" stroke="#49afaa" stroke-width="1.51"/><path d="M289,971L217,1025L422,988Z" fill="#4da2a8" stroke="#4da2a8" stroke-width="1.51"/><path d="M634,1036L196,1044L823,1043Z" fill="#48ada4" stroke="#48ada4" stroke-width="1.51"/><path d="M137,945L244,839L161,810Z" fill="#4f9fb3" stroke="#4f9fb3" stroke-width="1.51"/><path d="M21,679L17,752L37,738Z" fill="#519bbe" stroke="#519bbe" stroke-width="1.51"/><path d="M-51,484L-23,564L29,501Z" fill="#539fcf" stroke="#539fcf" stroke-width="1.51"/><path d="M72,906L137,945L161,810Z" fill="#4f9bb1" stroke="#4f9bb1" stroke-width="1.51"/><path d="M72,906L161,810L69,799Z" fill="#509bb5" stroke="#509bb5" stroke-width="1.51"/><path d="M1334,118L1363,80L1263,78Z" fill="#4fa0b2" stroke="#4fa0b2" stroke-width="1.51"/><path d="M1433,113L1363,80L1334,118Z" fill="#4fa0af" stroke="#4fa0af" stroke-width="1.51"/><path d="M-31,276L-28,363L48,313Z" fill="#5398d4" stroke="#5398d4" stroke-width="1.51"/><path d="M9,427L-51,484L29,501Z" fill="#53a1d3" stroke="#53a1d3" stroke-width="1.51"/><path d="M110,0L161,102L213,21Z" fill="#528bd5" stroke="#528bd5" stroke-width="1.51"/><path d="M-31,276L99,225L3,169Z" fill="#5292d5" stroke="#5292d5" stroke-width="1.51"/><path d="M37,738L17,752L69,799Z" fill="#519abb" stroke="#519abb" stroke-width="1.51"/><path d="M-17,817L-143,759L-96,831Z" fill="#5193b8" stroke="#5193b8" stroke-width="1.51"/><path d="M1340,830L1423,789L1336,760Z" fill="#40ae93" stroke="#40ae93" stroke-width="1.51"/><path d="M1287,910L1331,939L1340,830Z" fill="#3fad8d" stroke="#3fad8d" stroke-width="1.51"/><path d="M1300,998L1331,939L1287,910Z" fill="#3dab8a" stroke="#3dab8a" stroke-width="1.51"/><path d="M1439,823L1423,789L1340,830Z" fill="#3fad8f" stroke="#3fad8f" stroke-width="1.51"/><path d="M1538,614L1548,512L1454,577Z" fill="#43b39d" stroke="#43b39d" stroke-width="1.51"/><path d="M-77,642L17,752L21,679Z" fill="#529ac1" stroke="#529ac1" stroke-width="1.51"/><path d="M-75,379L-51,484L9,427Z" fill="#539ed4" stroke="#539ed4" stroke-width="1.51"/><path d="M136,-58L213,21L273,-54Z" fill="#5189d5" stroke="#5189d5" stroke-width="1.51"/><path d="M217,1025L196,1044L422,988Z" fill="#4d9fa7" stroke="#4d9fa7" stroke-width="1.51"/><path d="M137,945L196,1044L217,1025Z" fill="#4e9aa8" stroke="#4e9aa8" stroke-width="1.51"/><path d="M96,1011L196,1044L137,945Z" fill="#4e98a8" stroke="#4e98a8" stroke-width="1.51"/><path d="M-28,363L-75,379L9,427Z" fill="#539cd4" stroke="#539cd4" stroke-width="1.51"/><path d="M3,169L99,225L78,145Z" fill="#5290d5" stroke="#5290d5" stroke-width="1.51"/><path d="M3,169L78,145L78,82Z" fill="#528dd5" stroke="#528dd5" stroke-width="1.51"/><path d="M-83,180L3,169L-19,18Z" fill="#5188d5" stroke="#5188d5" stroke-width="1.51"/><path d="M-17,817L72,906L69,799Z" fill="#5198b5" stroke="#5198b5" stroke-width="1.51"/><path d="M1421,921L1439,823L1340,830Z" fill="#3eac8b" stroke="#3eac8b" stroke-width="1.51"/><path d="M1199,981L1300,998L1287,910Z" fill="#3eac8b" stroke="#3eac8b" stroke-width="1.51"/><path d="M823,1043L1300,998L945,1010Z" fill="#40af94" stroke="#40af94" stroke-width="1.51"/><path d="M1367,-1L1311,-40L1263,78Z" fill="#509ab2" stroke="#509ab2" stroke-width="1.51"/><path d="M275,-94L136,-58L273,-54Z" fill="#5187d5" stroke="#5187d5" stroke-width="1.51"/><path d="M-19,18L3,169L78,82Z" fill="#5188d5" stroke="#5188d5" stroke-width="1.51"/><path d="M1434,267L1433,113L1324,183Z" fill="#4da5ae" stroke="#4da5ae" stroke-width="1.51"/><path d="M1363,80L1367,-1L1263,78Z" fill="#509db2" stroke="#509db2" stroke-width="1.51"/><path d="M1516,251L1433,113L1434,267Z" fill="#4ca6aa" stroke="#4ca6aa" stroke-width="1.51"/><path d="M1421,921L1340,830L1331,939Z" fill="#3eac8b" stroke="#3eac8b" stroke-width="1.51"/><path d="M1532,699L1538,614L1426,677Z" fill="#41b096" stroke="#41b096" stroke-width="1.51"/><path d="M1413,6L1367,-1L1363,80Z" fill="#4f9aaf" stroke="#4f9aaf" stroke-width="1.51"/><path d="M-31,276L-75,379L-28,363Z" fill="#5397d4" stroke="#5397d4" stroke-width="1.51"/><path d="M-124,459L-75,379L-140,351Z" fill="#5398d4" stroke="#5398d4" stroke-width="1.51"/><path d="M275,-94L132,-76L136,-58Z" fill="#5084d5" stroke="#5084d5" stroke-width="1.51"/><path d="M136,-58L7,-49L110,0Z" fill="#5082d4" stroke="#5082d4" stroke-width="1.51"/><path d="M39,-128L132,-76L275,-94Z" fill="#5081d5" stroke="#5081d5" stroke-width="1.51"/><path d="M1300,998L1341,997L1331,939Z" fill="#3caa86" stroke="#3caa86" stroke-width="1.51"/><path d="M1456,1018L1341,997L1300,998Z" fill="#3ba882" stroke="#3ba882" stroke-width="1.51"/><path d="M1542,434L1421,465L1548,512Z" fill="#44b6a5" stroke="#44b6a5" stroke-width="1.51"/><path d="M1542,434L1423,365L1421,465Z" fill="#46b5a9" stroke="#46b5a9" stroke-width="1.51"/><path d="M17,752L-17,817L69,799Z" fill="#5199b9" stroke="#5199b9" stroke-width="1.51"/><path d="M72,906L96,1011L137,945Z" fill="#4f98ac" stroke="#4f98ac" stroke-width="1.51"/><path d="M-77,642L21,679L-23,564Z" fill="#529bc6" stroke="#529bc6" stroke-width="1.51"/><path d="M-77,642L-23,564L-124,536Z" fill="#529aca" stroke="#529aca" stroke-width="1.51"/><path d="M-124,536L-23,564L-51,484Z" fill="#539cce" stroke="#539cce" stroke-width="1.51"/><path d="M1548,512L1421,465L1454,577Z" fill="#44b5a3" stroke="#44b5a3" stroke-width="1.51"/><path d="M-13,964L96,1011L72,906Z" fill="#4f95ab" stroke="#4f95ab" stroke-width="1.51"/><path d="M1523,345L1516,251L1431,283Z" fill="#4aaba8" stroke="#4aaba8" stroke-width="1.51"/><path d="M1339,-103L1311,-40L1367,-1Z" fill="#5095b1" stroke="#5095b1" stroke-width="1.51"/><path d="M1550,190L1516,251L1523,345Z" fill="#4aa8a6" stroke="#4aa8a6" stroke-width="1.51"/><path d="M1538,614L1454,577L1426,677Z" fill="#42b29a" stroke="#42b29a" stroke-width="1.51"/><path d="M1508,739L1426,677L1423,789Z" fill="#3faf93" stroke="#3faf93" stroke-width="1.51"/><path d="M1439,823L1508,739L1423,789Z" fill="#3fad8e" stroke="#3fad8e" stroke-width="1.51"/><path d="M1514,835L1508,739L1439,823Z" fill="#3eac8c" stroke="#3eac8c" stroke-width="1.51"/><path d="M1339,-103L1314,-109L1311,-40Z" fill="#5093b2" stroke="#5093b2" stroke-width="1.51"/><path d="M1311,-40L1314,-109L1153,-97Z" fill="#5194b6" stroke="#5194b6" stroke-width="1.51"/><path d="M1153,-97L1314,-109L1100,-105Z" fill="#5294ba" stroke="#5294ba" stroke-width="1.51"/><path d="M1413,6L1363,80L1433,113Z" fill="#4f9cae" stroke="#4f9cae" stroke-width="1.51"/><path d="M1341,997L1421,921L1331,939Z" fill="#3caa86" stroke="#3caa86" stroke-width="1.51"/><path d="M1474,66L1413,6L1433,113Z" fill="#4f9bac" stroke="#4f9bac" stroke-width="1.51"/><path d="M1508,739L1532,699L1426,677Z" fill="#40af93" stroke="#40af93" stroke-width="1.51"/><path d="M1538,614L1562,946L1548,512Z" fill="#3fae91" stroke="#3fae91" stroke-width="1.51"/><path d="M1514,835L1532,699L1508,739Z" fill="#3fad8d" stroke="#3fad8d" stroke-width="1.51"/><path d="M1413,6L1339,-103L1367,-1Z" fill="#5095af" stroke="#5095af" stroke-width="1.51"/><path d="M-75,379L-124,459L-51,484Z" fill="#539dd5" stroke="#539dd5" stroke-width="1.51"/><path d="M-140,351L-75,379L-31,276Z" fill="#5395d4" stroke="#5395d4" stroke-width="1.51"/><path d="M-87,955L-13,964L-17,817Z" fill="#5092af" stroke="#5092af" stroke-width="1.51"/><path d="M-124,459L-124,536L-51,484Z" fill="#539bd1" stroke="#539bd1" stroke-width="1.51"/><path d="M1537,93L1474,66L1433,113Z" fill="#4d9ca9" stroke="#4d9ca9" stroke-width="1.51"/><path d="M1413,6L1500,-95L1339,-103Z" fill="#5093ad" stroke="#5093ad" stroke-width="1.51"/><path d="M3,169L-83,180L-31,276Z" fill="#528dd5" stroke="#528dd5" stroke-width="1.51"/><path d="M-19,18L78,82L110,0Z" fill="#5185d5" stroke="#5185d5" stroke-width="1.51"/><path d="M7,-49L-19,18L110,0Z" fill="#5081d4" stroke="#5081d4" stroke-width="1.51"/><path d="M-124,459L-140,351L-124,536Z" fill="#539bd5" stroke="#539bd5" stroke-width="1.51"/><path d="M-121,230L-140,351L-31,276Z" fill="#5290d5" stroke="#5290d5" stroke-width="1.51"/><path d="M1562,946L1514,835L1421,921Z" fill="#3ba982" stroke="#3ba982" stroke-width="1.51"/><path d="M1421,921L1514,835L1439,823Z" fill="#3daa88" stroke="#3daa88" stroke-width="1.51"/><path d="M1516,251L1550,190L1433,113Z" fill="#4ca3a8" stroke="#4ca3a8" stroke-width="1.51"/><path d="M1542,434L1550,190L1523,345Z" fill="#48ada5" stroke="#48ada5" stroke-width="1.51"/><path d="M1548,512L1550,190L1542,434Z" fill="#47b0a4" stroke="#47b0a4" stroke-width="1.51"/><path d="M-137,29L-121,230L-83,180Z" fill="#5185d5" stroke="#5185d5" stroke-width="1.51"/><path d="M-83,180L-121,230L-31,276Z" fill="#528dd5" stroke="#528dd5" stroke-width="1.51"/><path d="M-17,817L-13,964L72,906Z" fill="#5095b0" stroke="#5095b0" stroke-width="1.51"/><path d="M-17,817L17,752L-143,759Z" fill="#5195ba" stroke="#5195ba" stroke-width="1.51"/><path d="M-19,18L-137,29L-83,180Z" fill="#5082d5" stroke="#5082d5" stroke-width="1.51"/><path d="M132,-76L7,-49L136,-58Z" fill="#5081d4" stroke="#5081d4" stroke-width="1.51"/><path d="M-143,759L17,752L-77,642Z" fill="#5296bf" stroke="#5296bf" stroke-width="1.51"/><path d="M1550,190L1537,93L1433,113Z" fill="#4d9fa8" stroke="#4d9fa8" stroke-width="1.51"/><path d="M1567,2L1500,-95L1413,6Z" fill="#4f94a8" stroke="#4f94a8" stroke-width="1.51"/><path d="M-87,955L-20,992L-13,964Z" fill="#5090aa" stroke="#5090aa" stroke-width="1.51"/><path d="M-13,964L-20,992L96,1011Z" fill="#4f93a9" stroke="#4f93a9" stroke-width="1.51"/><path d="M96,1011L-103,1012L196,1044Z" fill="#4e94a6" stroke="#4e94a6" stroke-width="1.51"/><path d="M-93,-68L-137,29L-19,18Z" fill="#4e7bd4" stroke="#4e7bd4" stroke-width="1.51"/><path d="M132,-76L39,-128L7,-49Z" fill="#4f7dd4" stroke="#4f7dd4" stroke-width="1.51"/><path d="M24,-136L275,-94L522,-122Z" fill="#5186d5" stroke="#5186d5" stroke-width="1.51"/><path d="M-96,831L-87,955L-17,817Z" fill="#5192b3" stroke="#5192b3" stroke-width="1.51"/><path d="M-124,536L-143,759L-77,642Z" fill="#5296c5" stroke="#5296c5" stroke-width="1.51"/><path d="M-140,351L-143,759L-124,536Z" fill="#5298cd" stroke="#5298cd" stroke-width="1.51"/><path d="M1341,997L1456,1018L1421,921Z" fill="#3ba882" stroke="#3ba882" stroke-width="1.51"/><path d="M1530,1042L1456,1018L1300,998Z" fill="#39a67d" stroke="#39a67d" stroke-width="1.51"/><path d="M39,-128L24,-136L7,-49Z" fill="#4e7ad4" stroke="#4e7ad4" stroke-width="1.51"/><path d="M695,-149L24,-136L522,-122Z" fill="#528cd5" stroke="#528cd5" stroke-width="1.51"/><path d="M-143,759L-87,955L-96,831Z" fill="#5190b4" stroke="#5190b4" stroke-width="1.51"/><path d="M1567,2L1413,6L1474,66Z" fill="#4e97a9" stroke="#4e97a9" stroke-width="1.51"/><path d="M1339,-103L1482,-150L1314,-109Z" fill="#508faf" stroke="#508faf" stroke-width="1.51"/><path d="M1314,-109L1482,-150L970,-145Z" fill="#5190b6" stroke="#5190b6" stroke-width="1.51"/><path d="M1456,1018L1562,946L1421,921Z" fill="#3aa77f" stroke="#3aa77f" stroke-width="1.51"/><path d="M1514,835L1562,946L1532,699Z" fill="#3caa86" stroke="#3caa86" stroke-width="1.51"/><path d="M1532,699L1562,946L1538,614Z" fill="#3eac8c" stroke="#3eac8c" stroke-width="1.51"/><path d="M1548,512L1567,2L1550,190Z" fill="#4ba5a5" stroke="#4ba5a5" stroke-width="1.51"/><path d="M-79,-72L-19,18L7,-49Z" fill="#4f7cd4" stroke="#4f7cd4" stroke-width="1.51"/><path d="M-121,230L-137,29L-140,351Z" fill="#5188d5" stroke="#5188d5" stroke-width="1.51"/><path d="M1562,946L1567,2L1548,512Z" fill="#43b4a1" stroke="#43b4a1" stroke-width="1.51"/><path d="M1550,190L1567,2L1537,93Z" fill="#4d9ba6" stroke="#4d9ba6" stroke-width="1.51"/><path d="M1537,93L1567,2L1474,66Z" fill="#4e99a7" stroke="#4e99a7" stroke-width="1.51"/><path d="M24,-136L-79,-72L7,-49Z" fill="#4e79d4" stroke="#4e79d4" stroke-width="1.51"/><path d="M24,-136L-93,-68L-79,-72Z" fill="#4d77d4" stroke="#4d77d4" stroke-width="1.51"/><path d="M-79,-72L-93,-68L-19,18Z" fill="#4e7ad4" stroke="#4e7ad4" stroke-width="1.51"/><path d="M1567,2L1482,-150L1500,-95Z" fill="#4f8fa7" stroke="#4f8fa7" stroke-width="1.51"/><path d="M1500,-95L1482,-150L1339,-103Z" fill="#508eac" stroke="#508eac" stroke-width="1.51"/><path d="M970,-145L1482,-150L695,-149Z" fill="#5294c2" stroke="#5294c2" stroke-width="1.51"/><path d="M-143,759L-103,1012L-87,955Z" fill="#508eaf" stroke="#508eaf" stroke-width="1.51"/><path d="M-87,955L-103,1012L-20,992Z" fill="#508ea9" stroke="#508ea9" stroke-width="1.51"/><path d="M-20,992L-103,1012L96,1011Z" fill="#4f91a8" stroke="#4f91a8" stroke-width="1.51"/><path d="M196,1044L1530,1042L823,1043Z" fill="#42b29c" stroke="#42b29c" stroke-width="1.51"/><path d="M823,1043L1530,1042L1300,998Z" fill="#3dab88" stroke="#3dab88" stroke-width="1.51"/><path d="M1456,1018L1530,1042L1562,946Z" fill="#38a57a" stroke="#38a57a" stroke-width="1.51"/></svg>