<svg xmlns="http://www.w3.org/2000/svg" width="1440" height="900"><path d="M788,537L771,598L843,600Z" fill="#5fcfd0" stroke="#5fcfd0" stroke-width="1.51"/><path d="M843,600L885,528L788,537Z" fill="#60cfcf" stroke="#60cfcf" stroke-width="1.51"/><path d="M771,598L845,683L843,600Z" fill="#5ccacc" stroke="#5ccacc" stroke-width="1.51"/><path d="M1020,573L979,498L885,528Z" fill="#5ccacc" stroke="#5ccacc" stroke-width="1.51"/><path d="M788,537L694,590L771,598Z" fill="#62d3d2" stroke="#62d3d2" stroke-width="1.51"/><path d="M771,598L726,711L845,683Z" fill="#5cc9cb" stroke="#5cc9cb" stroke-width="1.51"/><path d="M694,590L726,711L771,598Z" fill="#5fcfcf" stroke="#5fcfcf" stroke-width="1.51"/><path d="M885,528L777,401L788,537Z" fill="#64d6d4" stroke="#64d6d4" stroke-width="1.51"/><path d="M788,537L648,474L694,590Z" fill="#65d8d5" stroke="#65d8d5" stroke-width="1.51"/><path d="M726,711L792,759L845,683Z" fill="#58c4c8" stroke="#58c4c8" stroke-width="1.51"/><path d="M885,528L852,377L777,401Z" fill="#65d8d5" stroke="#65d8d5" stroke-width="1.51"/><path d="M1020,573L885,528L843,600Z" fill="#5ccacc" stroke="#5ccacc" stroke-width="1.51"/><path d="M979,694L843,600L845,683Z" fill="#58c3c8" stroke="#58c3c8" stroke-width="1.51"/><path d="M660,442L648,474L788,537Z" fill="#67dcd8" stroke="#67dcd8" stroke-width="1.51"/><path d="M694,590L644,739L726,711Z" fill="#5dc9ce" stroke="#5dc9ce" stroke-width="1.51"/><path d="M777,401L660,442L788,537Z" fill="#68ddd8" stroke="#68ddd8" stroke-width="1.51"/><path d="M979,498L852,377L885,528Z" fill="#62d3d2" stroke="#62d3d2" stroke-width="1.51"/><path d="M924,771L979,694L845,683Z" fill="#54bdc4" stroke="#54bdc4" stroke-width="1.51"/><path d="M979,694L1020,573L843,600Z" fill="#58c3c8" stroke="#58c3c8" stroke-width="1.51"/><path d="M574,473L590,589L648,474Z" fill="#66d4d8" stroke="#66d4d8" stroke-width="1.51"/><path d="M648,474L590,589L694,590Z" fill="#64d2d5" stroke="#64d2d5" stroke-width="1.51"/><path d="M792,759L924,771L845,683Z" fill="#55bfc5" stroke="#55bfc5" stroke-width="1.51"/><path d="M1020,573L1035,537L979,498Z" fill="#5ac7ca" stroke="#5ac7ca" stroke-width="1.51"/><path d="M979,498L990,407L852,377Z" fill="#62d1d2" stroke="#62d1d2" stroke-width="1.51"/><path d="M1065,637L1035,537L1020,573Z" fill="#57c1c6" stroke="#57c1c6" stroke-width="1.51"/><path d="M590,589L644,739L694,590Z" fill="#60cbd0" stroke="#60cbd0" stroke-width="1.51"/><path d="M726,711L672,830L792,759Z" fill="#57c4c8" stroke="#57c4c8" stroke-width="1.51"/><path d="M1046,393L990,407L979,498Z" fill="#5fcdd0" stroke="#5fcdd0" stroke-width="1.51"/><path d="M660,442L574,473L648,474Z" fill="#69dadb" stroke="#69dadb" stroke-width="1.51"/><path d="M792,759L821,831L924,771Z" fill="#52bbc3" stroke="#52bbc3" stroke-width="1.51"/><path d="M813,861L821,831L672,830Z" fill="#52bbc2" stroke="#52bbc2" stroke-width="1.51"/><path d="M979,694L1065,637L1020,573Z" fill="#54bec5" stroke="#54bec5" stroke-width="1.51"/><path d="M1107,693L1065,637L979,694Z" fill="#51b8c1" stroke="#51b8c1" stroke-width="1.51"/><path d="M821,831L913,905L924,771Z" fill="#4eb4bf" stroke="#4eb4bf" stroke-width="1.51"/><path d="M672,830L821,831L792,759Z" fill="#54bec5" stroke="#54bec5" stroke-width="1.51"/><path d="M777,401L714,303L660,442Z" fill="#6adadb" stroke="#6adadb" stroke-width="1.51"/><path d="M660,442L565,398L574,473Z" fill="#6ad8db" stroke="#6ad8db" stroke-width="1.51"/><path d="M798,272L714,303L777,401Z" fill="#69d3db" stroke="#69d3db" stroke-width="1.51"/><path d="M798,272L777,401L852,377Z" fill="#67d2d8" stroke="#67d2d8" stroke-width="1.51"/><path d="M644,739L672,830L726,711Z" fill="#59c3c9" stroke="#59c3c9" stroke-width="1.51"/><path d="M611,805L672,830L644,739Z" fill="#57bdc8" stroke="#57bdc8" stroke-width="1.51"/><path d="M963,316L853,289L852,377Z" fill="#64ccd5" stroke="#64ccd5" stroke-width="1.51"/><path d="M990,407L963,316L852,377Z" fill="#63ccd3" stroke="#63ccd3" stroke-width="1.51"/><path d="M1035,537L1046,393L979,498Z" fill="#5dcccd" stroke="#5dcccd" stroke-width="1.51"/><path d="M1188,483L1046,393L1035,537Z" fill="#5bc8cb" stroke="#5bc8cb" stroke-width="1.51"/><path d="M714,303L565,398L660,442Z" fill="#6ad6dc" stroke="#6ad6dc" stroke-width="1.51"/><path d="M1046,393L963,316L990,407Z" fill="#60c9d0" stroke="#60c9d0" stroke-width="1.51"/><path d="M538,723L590,589L484,620Z" fill="#60c4d1" stroke="#60c4d1" stroke-width="1.51"/><path d="M538,723L644,739L590,589Z" fill="#5ec4ce" stroke="#5ec4ce" stroke-width="1.51"/><path d="M538,723L611,805L644,739Z" fill="#5abeca" stroke="#5abeca" stroke-width="1.51"/><path d="M853,289L798,272L852,377Z" fill="#66ced8" stroke="#66ced8" stroke-width="1.51"/><path d="M773,202L798,272L875,206Z" fill="#67c8da" stroke="#67c8da" stroke-width="1.51"/><path d="M484,620L590,589L446,530Z" fill="#63c9d5" stroke="#63c9d5" stroke-width="1.51"/><path d="M1105,828L1107,693L979,694Z" fill="#4db2bd" stroke="#4db2bd" stroke-width="1.51"/><path d="M1065,637L1177,639L1035,537Z" fill="#53bcc4" stroke="#53bcc4" stroke-width="1.51"/><path d="M1105,828L979,694L924,771Z" fill="#4eb4be" stroke="#4eb4be" stroke-width="1.51"/><path d="M446,530L590,589L574,473Z" fill="#66cfd8" stroke="#66cfd8" stroke-width="1.51"/><path d="M436,825L523,900L611,805Z" fill="#54b3c6" stroke="#54b3c6" stroke-width="1.51"/><path d="M484,620L494,712L538,723Z" fill="#5dbfcf" stroke="#5dbfcf" stroke-width="1.51"/><path d="M813,861L913,905L821,831Z" fill="#4eb4be" stroke="#4eb4be" stroke-width="1.51"/><path d="M925,917L913,905L915,1019Z" fill="#47a9b7" stroke="#47a9b7" stroke-width="1.51"/><path d="M913,905L925,917L924,771Z" fill="#4bb0bb" stroke="#4bb0bb" stroke-width="1.51"/><path d="M755,1011L913,905L813,861Z" fill="#4bb0bc" stroke="#4bb0bc" stroke-width="1.51"/><path d="M565,398L446,530L574,473Z" fill="#69d3db" stroke="#69d3db" stroke-width="1.51"/><path d="M484,620L381,638L494,712Z" fill="#5fbfd1" stroke="#5fbfd1" stroke-width="1.51"/><path d="M1046,393L1074,316L963,316Z" fill="#5fc5d0" stroke="#5fc5d0" stroke-width="1.51"/><path d="M875,206L798,272L853,289Z" fill="#66c8d9" stroke="#66c8d9" stroke-width="1.51"/><path d="M1222,421L1074,316L1046,393Z" fill="#5bc3cc" stroke="#5bc3cc" stroke-width="1.51"/><path d="M1107,693L1177,639L1065,637Z" fill="#50b7c0" stroke="#50b7c0" stroke-width="1.51"/><path d="M1194,713L1177,639L1107,693Z" fill="#4db2bd" stroke="#4db2bd" stroke-width="1.51"/><path d="M798,272L773,202L714,303Z" fill="#69cddc" stroke="#69cddc" stroke-width="1.51"/><path d="M714,303L616,249L565,398Z" fill="#6bcfdd" stroke="#6bcfdd" stroke-width="1.51"/><path d="M875,206L853,289L963,316Z" fill="#64c7d6" stroke="#64c7d6" stroke-width="1.51"/><path d="M970,196L875,206L963,316Z" fill="#62c1d5" stroke="#62c1d5" stroke-width="1.51"/><path d="M684,176L616,249L714,303Z" fill="#6bcbde" stroke="#6bcbde" stroke-width="1.51"/><path d="M565,398L419,352L446,530Z" fill="#6bd0dd" stroke="#6bd0dd" stroke-width="1.51"/><path d="M672,830L708,944L813,861Z" fill="#51bac2" stroke="#51bac2" stroke-width="1.51"/><path d="M523,900L708,944L672,830Z" fill="#52b4c3" stroke="#52b4c3" stroke-width="1.51"/><path d="M523,900L672,830L611,805Z" fill="#54b7c5" stroke="#54b7c5" stroke-width="1.51"/><path d="M925,917L1105,828L924,771Z" fill="#4aaeba" stroke="#4aaeba" stroke-width="1.51"/><path d="M1177,639L1188,483L1035,537Z" fill="#55bfc5" stroke="#55bfc5" stroke-width="1.51"/><path d="M1105,828L1194,713L1107,693Z" fill="#4aadba" stroke="#4aadba" stroke-width="1.51"/><path d="M1177,639L1270,632L1188,483Z" fill="#50b7c0" stroke="#50b7c0" stroke-width="1.51"/><path d="M1023,203L970,196L963,316Z" fill="#61bfd3" stroke="#61bfd3" stroke-width="1.51"/><path d="M737,71L684,176L773,202Z" fill="#6ac6de" stroke="#6ac6de" stroke-width="1.51"/><path d="M773,202L684,176L714,303Z" fill="#6bcddd" stroke="#6bcddd" stroke-width="1.51"/><path d="M875,143L773,202L875,206Z" fill="#66c3da" stroke="#66c3da" stroke-width="1.51"/><path d="M1168,279L1023,203L1074,316Z" fill="#5dbbcf" stroke="#5dbbcf" stroke-width="1.51"/><path d="M1074,316L1023,203L963,316Z" fill="#5fc0d1" stroke="#5fc0d1" stroke-width="1.51"/><path d="M1105,828L1146,842L1194,713Z" fill="#47a9b7" stroke="#47a9b7" stroke-width="1.51"/><path d="M1165,891L1146,842L1105,828Z" fill="#44a4b4" stroke="#44a4b4" stroke-width="1.51"/><path d="M446,530L381,638L484,620Z" fill="#63c3d5" stroke="#63c3d5" stroke-width="1.51"/><path d="M436,825L611,805L538,723Z" fill="#58b8c9" stroke="#58b8c9" stroke-width="1.51"/><path d="M436,825L538,723L494,712Z" fill="#5ab8cc" stroke="#5ab8cc" stroke-width="1.51"/><path d="M953,130L875,143L970,196Z" fill="#63bbd6" stroke="#63bbd6" stroke-width="1.51"/><path d="M970,196L875,143L875,206Z" fill="#64bfd7" stroke="#64bfd7" stroke-width="1.51"/><path d="M1274,808L1235,673L1194,713Z" fill="#47a9b7" stroke="#47a9b7" stroke-width="1.51"/><path d="M1194,713L1235,673L1177,639Z" fill="#4cb0bc" stroke="#4cb0bc" stroke-width="1.51"/><path d="M708,944L755,1011L813,861Z" fill="#4db3bd" stroke="#4db3bd" stroke-width="1.51"/><path d="M925,917L1064,948L1105,828Z" fill="#45a7b6" stroke="#45a7b6" stroke-width="1.51"/><path d="M685,1007L755,1011L708,944Z" fill="#4cb1bc" stroke="#4cb1bc" stroke-width="1.51"/><path d="M1188,483L1222,421L1046,393Z" fill="#5ac5ca" stroke="#5ac5ca" stroke-width="1.51"/><path d="M1251,414L1222,421L1295,476Z" fill="#56c0c6" stroke="#56c0c6" stroke-width="1.51"/><path d="M335,727L436,825L494,712Z" fill="#5ab5cc" stroke="#5ab5cc" stroke-width="1.51"/><path d="M425,262L419,352L565,398Z" fill="#6bc8de" stroke="#6bc8de" stroke-width="1.51"/><path d="M446,530L332,470L381,638Z" fill="#65c5d8" stroke="#65c5d8" stroke-width="1.51"/><path d="M543,212L565,398L616,249Z" fill="#6bcade" stroke="#6bcade" stroke-width="1.51"/><path d="M540,977L685,1007L708,944Z" fill="#4daebe" stroke="#4daebe" stroke-width="1.51"/><path d="M684,176L543,212L616,249Z" fill="#6bc6df" stroke="#6bc6df" stroke-width="1.51"/><path d="M957,1038L1064,948L925,917Z" fill="#43a4b4" stroke="#43a4b4" stroke-width="1.51"/><path d="M755,1011L915,1019L913,905Z" fill="#47a9b8" stroke="#47a9b8" stroke-width="1.51"/><path d="M1235,673L1270,632L1177,639Z" fill="#4cb1bc" stroke="#4cb1bc" stroke-width="1.51"/><path d="M1372,640L1270,632L1235,673Z" fill="#4aadba" stroke="#4aadba" stroke-width="1.51"/><path d="M1222,421L1168,279L1074,316Z" fill="#5abdcb" stroke="#5abdcb" stroke-width="1.51"/><path d="M971,35L953,130L1049,45Z" fill="#60b0d5" stroke="#60b0d5" stroke-width="1.51"/><path d="M1023,203L953,130L970,196Z" fill="#61bad5" stroke="#61bad5" stroke-width="1.51"/><path d="M1295,476L1222,421L1188,483Z" fill="#56c1c6" stroke="#56c1c6" stroke-width="1.51"/><path d="M1222,421L1251,414L1168,279Z" fill="#58bcc9" stroke="#58bcc9" stroke-width="1.51"/><path d="M1146,842L1274,808L1194,713Z" fill="#45a6b6" stroke="#45a6b6" stroke-width="1.51"/><path d="M1064,948L1165,891L1105,828Z" fill="#43a3b3" stroke="#43a3b3" stroke-width="1.51"/><path d="M523,900L540,977L708,944Z" fill="#4faec0" stroke="#4faec0" stroke-width="1.51"/><path d="M482,990L540,977L523,900Z" fill="#4ea8c0" stroke="#4ea8c0" stroke-width="1.51"/><path d="M436,825L434,885L523,900Z" fill="#53adc5" stroke="#53adc5" stroke-width="1.51"/><path d="M388,901L434,885L436,825Z" fill="#53aac6" stroke="#53aac6" stroke-width="1.51"/><path d="M915,1019L957,1038L925,917Z" fill="#44a4b4" stroke="#44a4b4" stroke-width="1.51"/><path d="M1064,948L1223,1010L1165,891Z" fill="#3d9cae" stroke="#3d9cae" stroke-width="1.51"/><path d="M868,1060L957,1038L915,1019Z" fill="#41a2b3" stroke="#41a2b3" stroke-width="1.51"/><path d="M868,1060L915,1019L755,1011Z" fill="#45a6b6" stroke="#45a6b6" stroke-width="1.51"/><path d="M330,425L332,470L446,530Z" fill="#69cadc" stroke="#69cadc" stroke-width="1.51"/><path d="M381,638L335,727L494,712Z" fill="#5db9cf" stroke="#5db9cf" stroke-width="1.51"/><path d="M815,1129L755,1011L640,1109Z" fill="#47aab8" stroke="#47aab8" stroke-width="1.51"/><path d="M815,1129L868,1060L755,1011Z" fill="#44a6b5" stroke="#44a6b5" stroke-width="1.51"/><path d="M419,352L330,425L446,530Z" fill="#6acddd" stroke="#6acddd" stroke-width="1.51"/><path d="M543,212L425,262L565,398Z" fill="#6bc6df" stroke="#6bc6df" stroke-width="1.51"/><path d="M293,620L335,727L381,638Z" fill="#5fb8d2" stroke="#5fb8d2" stroke-width="1.51"/><path d="M1270,632L1295,476L1188,483Z" fill="#51bac2" stroke="#51bac2" stroke-width="1.51"/><path d="M1241,218L1174,196L1168,279Z" fill="#59b2cb" stroke="#59b2cb" stroke-width="1.51"/><path d="M332,470L293,620L381,638Z" fill="#64c0d7" stroke="#64c0d7" stroke-width="1.51"/><path d="M300,366L330,425L419,352Z" fill="#6bc5df" stroke="#6bc5df" stroke-width="1.51"/><path d="M684,176L602,81L543,212Z" fill="#6bc1df" stroke="#6bc1df" stroke-width="1.51"/><path d="M543,212L456,163L425,262Z" fill="#6bbee0" stroke="#6bbee0" stroke-width="1.51"/><path d="M875,143L737,71L773,202Z" fill="#68c1dc" stroke="#68c1dc" stroke-width="1.51"/><path d="M810,-3L737,71L875,143Z" fill="#68bbdc" stroke="#68bbdc" stroke-width="1.51"/><path d="M230,453L293,620L332,470Z" fill="#67c2db" stroke="#67c2db" stroke-width="1.51"/><path d="M1274,867L1274,808L1146,842Z" fill="#41a0b1" stroke="#41a0b1" stroke-width="1.51"/><path d="M1270,632L1369,530L1295,476Z" fill="#4eb5bf" stroke="#4eb5bf" stroke-width="1.51"/><path d="M954,1152L1042,1041L957,1038Z" fill="#3e9caf" stroke="#3e9caf" stroke-width="1.51"/><path d="M957,1038L1042,1041L1064,948Z" fill="#3f9eb0" stroke="#3f9eb0" stroke-width="1.51"/><path d="M1165,891L1274,867L1146,842Z" fill="#41a0b1" stroke="#41a0b1" stroke-width="1.51"/><path d="M434,885L482,990L523,900Z" fill="#50a9c2" stroke="#50a9c2" stroke-width="1.51"/><path d="M335,727L350,828L436,825Z" fill="#57afca" stroke="#57afca" stroke-width="1.51"/><path d="M291,763L350,828L335,727Z" fill="#58aecb" stroke="#58aecb" stroke-width="1.51"/><path d="M737,71L693,61L684,176Z" fill="#6bc2df" stroke="#6bc2df" stroke-width="1.51"/><path d="M540,977L640,1109L685,1007Z" fill="#4aa8bb" stroke="#4aa8bb" stroke-width="1.51"/><path d="M388,901L482,990L434,885Z" fill="#50a7c3" stroke="#50a7c3" stroke-width="1.51"/><path d="M1298,314L1168,279L1251,414Z" fill="#57b8c8" stroke="#57b8c8" stroke-width="1.51"/><path d="M1168,279L1174,196L1023,203Z" fill="#5cb6ce" stroke="#5cb6ce" stroke-width="1.51"/><path d="M350,828L388,901L436,825Z" fill="#54aac7" stroke="#54aac7" stroke-width="1.51"/><path d="M693,61L602,81L684,176Z" fill="#6bbfdf" stroke="#6bbfdf" stroke-width="1.51"/><path d="M293,620L290,728L335,727Z" fill="#5db4d0" stroke="#5db4d0" stroke-width="1.51"/><path d="M216,940L342,992L388,901Z" fill="#4e9fc3" stroke="#4e9fc3" stroke-width="1.51"/><path d="M425,262L335,314L419,352Z" fill="#6bc1df" stroke="#6bc1df" stroke-width="1.51"/><path d="M330,425L230,453L332,470Z" fill="#6bc8de" stroke="#6bc8de" stroke-width="1.51"/><path d="M310,235L335,314L425,262Z" fill="#6bbce0" stroke="#6bbce0" stroke-width="1.51"/><path d="M469,146L456,163L543,212Z" fill="#6abce1" stroke="#6abce1" stroke-width="1.51"/><path d="M602,81L469,146L543,212Z" fill="#6abce0" stroke="#6abce0" stroke-width="1.51"/><path d="M310,235L301,319L335,314Z" fill="#6abce1" stroke="#6abce1" stroke-width="1.51"/><path d="M335,314L300,366L419,352Z" fill="#6bc2df" stroke="#6bc2df" stroke-width="1.51"/><path d="M293,620L157,746L290,728Z" fill="#5db0d1" stroke="#5db0d1" stroke-width="1.51"/><path d="M290,728L291,763L335,727Z" fill="#5ab0ce" stroke="#5ab0ce" stroke-width="1.51"/><path d="M1296,960L1274,867L1165,891Z" fill="#3d9aad" stroke="#3d9aad" stroke-width="1.51"/><path d="M1372,640L1369,530L1270,632Z" fill="#4aafbb" stroke="#4aafbb" stroke-width="1.51"/><path d="M868,1060L954,1152L957,1038Z" fill="#40a0b1" stroke="#40a0b1" stroke-width="1.51"/><path d="M640,1109L755,1011L685,1007Z" fill="#49abba" stroke="#49abba" stroke-width="1.51"/><path d="M1388,415L1298,314L1251,414Z" fill="#54b7c5" stroke="#54b7c5" stroke-width="1.51"/><path d="M521,1123L640,1109L540,977Z" fill="#49a3ba" stroke="#49a3ba" stroke-width="1.51"/><path d="M1298,314L1241,218L1168,279Z" fill="#57b3c9" stroke="#57b3c9" stroke-width="1.51"/><path d="M1295,476L1388,415L1251,414Z" fill="#53bbc4" stroke="#53bbc4" stroke-width="1.51"/><path d="M1372,640L1235,673L1402,743Z" fill="#45a8b6" stroke="#45a8b6" stroke-width="1.51"/><path d="M953,130L971,35L875,143Z" fill="#63b7d7" stroke="#63b7d7" stroke-width="1.51"/><path d="M737,71L810,-3L693,61Z" fill="#69bcdf" stroke="#69bcdf" stroke-width="1.51"/><path d="M1049,45L953,130L1023,203Z" fill="#60b4d4" stroke="#60b4d4" stroke-width="1.51"/><path d="M1139,117L1023,203L1174,196Z" fill="#5cb2cf" stroke="#5cb2cf" stroke-width="1.51"/><path d="M1267,68L1139,117L1174,196Z" fill="#59aacd" stroke="#59aacd" stroke-width="1.51"/><path d="M602,81L502,8L469,146Z" fill="#6ab6e1" stroke="#6ab6e1" stroke-width="1.51"/><path d="M693,61L622,39L602,81Z" fill="#6abbe1" stroke="#6abbe1" stroke-width="1.51"/><path d="M665,-105L622,39L693,61Z" fill="#6ab6e1" stroke="#6ab6e1" stroke-width="1.51"/><path d="M335,314L301,319L300,366Z" fill="#6bbfe0" stroke="#6bbfe0" stroke-width="1.51"/><path d="M300,366L230,453L330,425Z" fill="#6bc4df" stroke="#6bc4df" stroke-width="1.51"/><path d="M395,164L425,262L456,163Z" fill="#6bbae1" stroke="#6bbae1" stroke-width="1.51"/><path d="M1402,743L1235,673L1274,808Z" fill="#44a4b4" stroke="#44a4b4" stroke-width="1.51"/><path d="M1042,1041L1112,1066L1064,948Z" fill="#3c9bae" stroke="#3c9bae" stroke-width="1.51"/><path d="M954,1152L1112,1066L1042,1041Z" fill="#3c99ad" stroke="#3c99ad" stroke-width="1.51"/><path d="M971,35L810,-3L875,143Z" fill="#64b5da" stroke="#64b5da" stroke-width="1.51"/><path d="M366,98L395,164L469,146Z" fill="#69b4e2" stroke="#69b4e2" stroke-width="1.51"/><path d="M469,146L395,164L456,163Z" fill="#6ab8e1" stroke="#6ab8e1" stroke-width="1.51"/><path d="M1122,81L1049,45L1023,203Z" fill="#5dafd2" stroke="#5dafd2" stroke-width="1.51"/><path d="M971,35L918,-53L810,-3Z" fill="#63b0da" stroke="#63b0da" stroke-width="1.51"/><path d="M1139,117L1122,81L1023,203Z" fill="#5db0d0" stroke="#5db0d0" stroke-width="1.51"/><path d="M1204,22L1122,81L1139,117Z" fill="#5aa7cf" stroke="#5aa7cf" stroke-width="1.51"/><path d="M169,448L230,453L300,366Z" fill="#6bc2df" stroke="#6bc2df" stroke-width="1.51"/><path d="M290,728L157,746L291,763Z" fill="#5aacce" stroke="#5aacce" stroke-width="1.51"/><path d="M815,1129L954,1152L868,1060Z" fill="#42a2b3" stroke="#42a2b3" stroke-width="1.51"/><path d="M521,1123L954,1152L815,1129Z" fill="#46a9b7" stroke="#46a9b7" stroke-width="1.51"/><path d="M1112,1066L1223,1010L1064,948Z" fill="#3b98ac" stroke="#3b98ac" stroke-width="1.51"/><path d="M1412,838L1402,743L1274,808Z" fill="#3e9daf" stroke="#3e9daf" stroke-width="1.51"/><path d="M1185,1103L1223,1010L1112,1066Z" fill="#3692a8" stroke="#3692a8" stroke-width="1.51"/><path d="M1369,530L1388,415L1295,476Z" fill="#51b9c1" stroke="#51b9c1" stroke-width="1.51"/><path d="M1298,314L1344,265L1241,218Z" fill="#56afc7" stroke="#56afc7" stroke-width="1.51"/><path d="M1428,425L1388,415L1369,530Z" fill="#50b8c1" stroke="#50b8c1" stroke-width="1.51"/><path d="M140,260L169,448L300,366Z" fill="#6abbe0" stroke="#6abbe0" stroke-width="1.51"/><path d="M395,164L310,235L425,262Z" fill="#6ab9e1" stroke="#6ab9e1" stroke-width="1.51"/><path d="M1498,488L1428,425L1369,530Z" fill="#4eb3be" stroke="#4eb3be" stroke-width="1.51"/><path d="M1412,838L1274,808L1274,867Z" fill="#3e9caf" stroke="#3e9caf" stroke-width="1.51"/><path d="M482,990L521,1123L540,977Z" fill="#4aa2bc" stroke="#4aa2bc" stroke-width="1.51"/><path d="M640,1109L521,1123L815,1129Z" fill="#48a8b9" stroke="#48a8b9" stroke-width="1.51"/><path d="M427,1109L521,1123L482,990Z" fill="#489ebb" stroke="#489ebb" stroke-width="1.51"/><path d="M342,992L482,990L388,901Z" fill="#4ea2c1" stroke="#4ea2c1" stroke-width="1.51"/><path d="M1267,68L1204,22L1139,117Z" fill="#58a4cd" stroke="#58a4cd" stroke-width="1.51"/><path d="M1388,415L1344,265L1298,314Z" fill="#53b2c5" stroke="#53b2c5" stroke-width="1.51"/><path d="M1223,1010L1296,960L1165,891Z" fill="#3a97ac" stroke="#3a97ac" stroke-width="1.51"/><path d="M216,940L388,901L350,828Z" fill="#51a3c6" stroke="#51a3c6" stroke-width="1.51"/><path d="M992,-62L971,35L1049,45Z" fill="#5fabd6" stroke="#5fabd6" stroke-width="1.51"/><path d="M992,-62L918,-53L971,35Z" fill="#61aad7" stroke="#61aad7" stroke-width="1.51"/><path d="M605,-91L544,-10L622,39Z" fill="#69b1e2" stroke="#69b1e2" stroke-width="1.51"/><path d="M1388,415L1433,241L1344,265Z" fill="#52adc3" stroke="#52adc3" stroke-width="1.51"/><path d="M1460,589L1369,530L1372,640Z" fill="#48adb9" stroke="#48adb9" stroke-width="1.51"/><path d="M622,39L544,-10L602,81Z" fill="#6ab6e1" stroke="#6ab6e1" stroke-width="1.51"/><path d="M395,164L366,98L310,235Z" fill="#6ab3e2" stroke="#6ab3e2" stroke-width="1.51"/><path d="M665,-105L693,61L810,-3Z" fill="#6ab9e1" stroke="#6ab9e1" stroke-width="1.51"/><path d="M544,-10L502,8L602,81Z" fill="#6ab3e1" stroke="#6ab3e1" stroke-width="1.51"/><path d="M1223,1010L1233,1103L1296,960Z" fill="#3590a7" stroke="#3590a7" stroke-width="1.51"/><path d="M954,1152L1185,1103L1112,1066Z" fill="#3a96ab" stroke="#3a96ab" stroke-width="1.51"/><path d="M502,8L366,98L469,146Z" fill="#69b2e2" stroke="#69b2e2" stroke-width="1.51"/><path d="M230,453L155,592L293,620Z" fill="#65bbd9" stroke="#65bbd9" stroke-width="1.51"/><path d="M291,763L175,829L350,828Z" fill="#57a8ca" stroke="#57a8ca" stroke-width="1.51"/><path d="M140,260L300,366L301,319Z" fill="#6abae1" stroke="#6abae1" stroke-width="1.51"/><path d="M160,452L169,448L71,397Z" fill="#6abde0" stroke="#6abde0" stroke-width="1.51"/><path d="M1462,668L1460,589L1372,640Z" fill="#45a7b6" stroke="#45a7b6" stroke-width="1.51"/><path d="M160,452L155,592L230,453Z" fill="#68bddd" stroke="#68bddd" stroke-width="1.51"/><path d="M342,992L427,1109L482,990Z" fill="#4a9dbd" stroke="#4a9dbd" stroke-width="1.51"/><path d="M1404,951L1412,838L1274,867Z" fill="#3995aa" stroke="#3995aa" stroke-width="1.51"/><path d="M1402,743L1462,668L1372,640Z" fill="#43a3b3" stroke="#43a3b3" stroke-width="1.51"/><path d="M1404,951L1274,867L1296,960Z" fill="#3894aa" stroke="#3894aa" stroke-width="1.51"/><path d="M169,448L160,452L230,453Z" fill="#6bc2df" stroke="#6bc2df" stroke-width="1.51"/><path d="M96,490L160,452L71,397Z" fill="#6abde0" stroke="#6abde0" stroke-width="1.51"/><path d="M1481,754L1462,668L1402,743Z" fill="#3f9eb0" stroke="#3f9eb0" stroke-width="1.51"/><path d="M805,-137L665,-105L810,-3Z" fill="#68b1e0" stroke="#68b1e0" stroke-width="1.51"/><path d="M1089,-120L992,-62L1049,45Z" fill="#5da4d5" stroke="#5da4d5" stroke-width="1.51"/><path d="M1204,22L1049,45L1122,81Z" fill="#5ba7d1" stroke="#5ba7d1" stroke-width="1.51"/><path d="M155,592L157,746L293,620Z" fill="#5fb1d4" stroke="#5fb1d4" stroke-width="1.51"/><path d="M342,992L337,1147L427,1109Z" fill="#4898bc" stroke="#4898bc" stroke-width="1.51"/><path d="M1185,1103L1233,1103L1223,1010Z" fill="#358fa7" stroke="#358fa7" stroke-width="1.51"/><path d="M954,1152L1233,1103L1185,1103Z" fill="#3895aa" stroke="#3895aa" stroke-width="1.51"/><path d="M1267,68L1174,196L1241,218Z" fill="#58aacb" stroke="#58aacb" stroke-width="1.51"/><path d="M157,746L175,829L291,763Z" fill="#58a7cc" stroke="#58a7cc" stroke-width="1.51"/><path d="M1354,151L1241,218L1344,265Z" fill="#54a9c8" stroke="#54a9c8" stroke-width="1.51"/><path d="M1354,151L1267,68L1241,218Z" fill="#55a6c9" stroke="#55a6c9" stroke-width="1.51"/><path d="M1433,241L1354,151L1344,265Z" fill="#52a6c5" stroke="#52a6c5" stroke-width="1.51"/><path d="M175,829L216,940L350,828Z" fill="#53a2c7" stroke="#53a2c7" stroke-width="1.51"/><path d="M805,-137L810,-3L918,-53Z" fill="#64addd" stroke="#64addd" stroke-width="1.51"/><path d="M544,-10L423,-107L502,8Z" fill="#68aae3" stroke="#68aae3" stroke-width="1.51"/><path d="M350,11L241,121L366,98Z" fill="#68aae3" stroke="#68aae3" stroke-width="1.51"/><path d="M1428,425L1433,241L1388,415Z" fill="#51b0c2" stroke="#51b0c2" stroke-width="1.51"/><path d="M1460,589L1498,488L1369,530Z" fill="#4aaeba" stroke="#4aaeba" stroke-width="1.51"/><path d="M1612,588L1498,488L1460,589Z" fill="#46a8b6" stroke="#46a8b6" stroke-width="1.51"/><path d="M665,-105L605,-91L622,39Z" fill="#69b1e2" stroke="#69b1e2" stroke-width="1.51"/><path d="M1462,668L1540,703L1460,589Z" fill="#42a2b2" stroke="#42a2b2" stroke-width="1.51"/><path d="M1412,838L1481,754L1402,743Z" fill="#3d9aae" stroke="#3d9aae" stroke-width="1.51"/><path d="M1565,796L1481,754L1412,838Z" fill="#3996ab" stroke="#3996ab" stroke-width="1.51"/><path d="M1413,1022L1404,951L1296,960Z" fill="#338da5" stroke="#338da5" stroke-width="1.51"/><path d="M1517,261L1433,241L1428,425Z" fill="#4fa9c1" stroke="#4fa9c1" stroke-width="1.51"/><path d="M899,-153L918,-53L992,-62Z" fill="#60a6da" stroke="#60a6da" stroke-width="1.51"/><path d="M899,-153L805,-137L918,-53Z" fill="#62a8dc" stroke="#62a8dc" stroke-width="1.51"/><path d="M160,452L96,490L155,592Z" fill="#67badc" stroke="#67badc" stroke-width="1.51"/><path d="M155,592L76,672L157,746Z" fill="#5eacd4" stroke="#5eacd4" stroke-width="1.51"/><path d="M65,865L127,930L175,829Z" fill="#529ac8" stroke="#529ac8" stroke-width="1.51"/><path d="M140,260L301,319L310,235Z" fill="#6ab6e1" stroke="#6ab6e1" stroke-width="1.51"/><path d="M120,1017L229,1009L216,940Z" fill="#4b94c1" stroke="#4b94c1" stroke-width="1.51"/><path d="M216,940L229,1009L342,992Z" fill="#4c99c1" stroke="#4c99c1" stroke-width="1.51"/><path d="M366,98L241,121L310,235Z" fill="#69b0e2" stroke="#69b0e2" stroke-width="1.51"/><path d="M350,11L366,98L502,8Z" fill="#68ace3" stroke="#68ace3" stroke-width="1.51"/><path d="M423,-107L350,11L502,8Z" fill="#67a7e3" stroke="#67a7e3" stroke-width="1.51"/><path d="M1089,-120L899,-153L992,-62Z" fill="#5ea1d7" stroke="#5ea1d7" stroke-width="1.51"/><path d="M1189,-82L1089,-120L1049,45Z" fill="#5a9fd2" stroke="#5a9fd2" stroke-width="1.51"/><path d="M1267,68L1314,4L1204,22Z" fill="#559ecb" stroke="#559ecb" stroke-width="1.51"/><path d="M1354,151L1325,50L1267,68Z" fill="#53a0c9" stroke="#53a0c9" stroke-width="1.51"/><path d="M1427,114L1325,50L1354,151Z" fill="#529ec7" stroke="#529ec7" stroke-width="1.51"/><path d="M37,592L76,672L155,592Z" fill="#61aed6" stroke="#61aed6" stroke-width="1.51"/><path d="M175,829L127,930L216,940Z" fill="#509bc6" stroke="#509bc6" stroke-width="1.51"/><path d="M135,239L140,260L310,235Z" fill="#69b1e2" stroke="#69b1e2" stroke-width="1.51"/><path d="M427,1109L337,1147L521,1123Z" fill="#499bbb" stroke="#499bbb" stroke-width="1.51"/><path d="M521,1123L337,1147L954,1152Z" fill="#48a5ba" stroke="#48a5ba" stroke-width="1.51"/><path d="M288,1117L337,1147L342,992Z" fill="#4896bc" stroke="#4896bc" stroke-width="1.51"/><path d="M1481,754L1540,703L1462,668Z" fill="#3e9daf" stroke="#3e9daf" stroke-width="1.51"/><path d="M1565,796L1540,703L1481,754Z" fill="#3a97ac" stroke="#3a97ac" stroke-width="1.51"/><path d="M1189,-82L1049,45L1204,22Z" fill="#59a1d1" stroke="#59a1d1" stroke-width="1.51"/><path d="M229,1009L288,1117L342,992Z" fill="#4995bd" stroke="#4995bd" stroke-width="1.51"/><path d="M241,121L135,239L310,235Z" fill="#69afe2" stroke="#69afe2" stroke-width="1.51"/><path d="M72,323L71,397L169,448Z" fill="#6ab8e1" stroke="#6ab8e1" stroke-width="1.51"/><path d="M1404,951L1474,937L1412,838Z" fill="#358fa7" stroke="#358fa7" stroke-width="1.51"/><path d="M1412,1060L1413,1022L1296,960Z" fill="#308aa3" stroke="#308aa3" stroke-width="1.51"/><path d="M96,490L37,592L155,592Z" fill="#64b4da" stroke="#64b4da" stroke-width="1.51"/><path d="M72,323L169,448L140,260Z" fill="#6ab6e1" stroke="#6ab6e1" stroke-width="1.51"/><path d="M1492,994L1474,937L1404,951Z" fill="#3189a3" stroke="#3189a3" stroke-width="1.51"/><path d="M1314,4L1189,-82L1204,22Z" fill="#559bcd" stroke="#559bcd" stroke-width="1.51"/><path d="M1498,488L1555,420L1428,425Z" fill="#4db2be" stroke="#4db2be" stroke-width="1.51"/><path d="M1365,4L1314,4L1325,50Z" fill="#5299c9" stroke="#5299c9" stroke-width="1.51"/><path d="M1627,541L1555,420L1498,488Z" fill="#48acb9" stroke="#48acb9" stroke-width="1.51"/><path d="M1325,50L1314,4L1267,68Z" fill="#539cca" stroke="#539cca" stroke-width="1.51"/><path d="M1427,114L1354,151L1433,241Z" fill="#51a1c5" stroke="#51a1c5" stroke-width="1.51"/><path d="M229,1009L156,1084L288,1117Z" fill="#4791bd" stroke="#4791bd" stroke-width="1.51"/><path d="M65,865L175,829L157,746Z" fill="#55a0cb" stroke="#55a0cb" stroke-width="1.51"/><path d="M14,812L65,865L157,746Z" fill="#559dcc" stroke="#559dcc" stroke-width="1.51"/><path d="M-52,550L37,592L96,490Z" fill="#64b1db" stroke="#64b1db" stroke-width="1.51"/><path d="M1517,261L1427,114L1433,241Z" fill="#4fa1c2" stroke="#4fa1c2" stroke-width="1.51"/><path d="M1413,1022L1492,994L1404,951Z" fill="#2f89a2" stroke="#2f89a2" stroke-width="1.51"/><path d="M1233,1103L1412,1060L1296,960Z" fill="#318ba3" stroke="#318ba3" stroke-width="1.51"/><path d="M1555,420L1517,261L1428,425Z" fill="#4eacbe" stroke="#4eacbe" stroke-width="1.51"/><path d="M109,228L72,323L140,260Z" fill="#69afe2" stroke="#69afe2" stroke-width="1.51"/><path d="M-52,550L-8,625L37,592Z" fill="#61abd9" stroke="#61abd9" stroke-width="1.51"/><path d="M135,239L109,228L140,260Z" fill="#68ade3" stroke="#68ade3" stroke-width="1.51"/><path d="M241,121L193,97L135,239Z" fill="#68a9e3" stroke="#68a9e3" stroke-width="1.51"/><path d="M269,-37L193,97L241,121Z" fill="#67a4e4" stroke="#67a4e4" stroke-width="1.51"/><path d="M193,97L109,228L135,239Z" fill="#67aae3" stroke="#67aae3" stroke-width="1.51"/><path d="M350,11L269,-37L241,121Z" fill="#67a4e4" stroke="#67a4e4" stroke-width="1.51"/><path d="M605,-91L423,-107L544,-10Z" fill="#68a9e3" stroke="#68a9e3" stroke-width="1.51"/><path d="M665,-105L423,-107L605,-91Z" fill="#67a9e3" stroke="#67a9e3" stroke-width="1.51"/><path d="M805,-137L423,-107L665,-105Z" fill="#68abe3" stroke="#68abe3" stroke-width="1.51"/><path d="M162,-151L423,-107L805,-137Z" fill="#66a1e4" stroke="#66a1e4" stroke-width="1.51"/><path d="M1540,703L1612,588L1460,589Z" fill="#42a1b2" stroke="#42a1b2" stroke-width="1.51"/><path d="M1474,937L1565,796L1412,838Z" fill="#3690a7" stroke="#3690a7" stroke-width="1.51"/><path d="M1606,945L1565,796L1474,937Z" fill="#318aa3" stroke="#318aa3" stroke-width="1.51"/><path d="M127,930L120,1017L216,940Z" fill="#4c95c3" stroke="#4c95c3" stroke-width="1.51"/><path d="M14,812L157,746L76,672Z" fill="#59a3d0" stroke="#59a3d0" stroke-width="1.51"/><path d="M1314,4L1313,-104L1189,-82Z" fill="#5396cc" stroke="#5396cc" stroke-width="1.51"/><path d="M1427,114L1365,4L1325,50Z" fill="#519ac7" stroke="#519ac7" stroke-width="1.51"/><path d="M1313,-104L1426,-74L1332,-123Z" fill="#4f8ec9" stroke="#4f8ec9" stroke-width="1.51"/><path d="M1483,1059L1492,994L1413,1022Z" fill="#2c849f" stroke="#2c849f" stroke-width="1.51"/><path d="M1638,723L1612,588L1540,703Z" fill="#3c9aae" stroke="#3c9aae" stroke-width="1.51"/><path d="M1555,420L1612,282L1517,261Z" fill="#4ba4bd" stroke="#4ba4bd" stroke-width="1.51"/><path d="M423,-107L370,-101L350,11Z" fill="#66a2e4" stroke="#66a2e4" stroke-width="1.51"/><path d="M370,-101L269,-37L350,11Z" fill="#66a1e4" stroke="#66a1e4" stroke-width="1.51"/><path d="M-41,148L-16,324L109,228Z" fill="#67a6e3" stroke="#67a6e3" stroke-width="1.51"/><path d="M37,592L-8,625L76,672Z" fill="#60aad6" stroke="#60aad6" stroke-width="1.51"/><path d="M-52,550L96,490L-55,449Z" fill="#67b3df" stroke="#67b3df" stroke-width="1.51"/><path d="M92,972L120,1017L127,930Z" fill="#4b91c3" stroke="#4b91c3" stroke-width="1.51"/><path d="M288,1117L156,1084L337,1147Z" fill="#4793bd" stroke="#4793bd" stroke-width="1.51"/><path d="M65,865L92,972L127,930Z" fill="#4e95c5" stroke="#4e95c5" stroke-width="1.51"/><path d="M6,919L92,972L65,865Z" fill="#4e93c6" stroke="#4e93c6" stroke-width="1.51"/><path d="M1638,567L1627,541L1612,588Z" fill="#42a1b2" stroke="#42a1b2" stroke-width="1.51"/><path d="M1612,588L1627,541L1498,488Z" fill="#45a6b5" stroke="#45a6b5" stroke-width="1.51"/><path d="M24,1088L156,1084L120,1017Z" fill="#468abe" stroke="#468abe" stroke-width="1.51"/><path d="M120,1017L156,1084L229,1009Z" fill="#488fbe" stroke="#488fbe" stroke-width="1.51"/><path d="M-46,785L14,812L76,672Z" fill="#589ecf" stroke="#589ecf" stroke-width="1.51"/><path d="M1644,309L1612,282L1555,420Z" fill="#49a4bb" stroke="#49a4bb" stroke-width="1.51"/><path d="M1638,723L1638,567L1612,588Z" fill="#3e9caf" stroke="#3e9caf" stroke-width="1.51"/><path d="M1412,1060L1483,1059L1413,1022Z" fill="#2b849f" stroke="#2b849f" stroke-width="1.51"/><path d="M1717,766L1638,723L1565,796Z" fill="#3691a8" stroke="#3691a8" stroke-width="1.51"/><path d="M1565,796L1638,723L1540,703Z" fill="#3995aa" stroke="#3995aa" stroke-width="1.51"/><path d="M1584,1076L1483,1059L1412,1060Z" fill="#28809d" stroke="#28809d" stroke-width="1.51"/><path d="M1606,945L1474,937L1492,994Z" fill="#2e86a0" stroke="#2e86a0" stroke-width="1.51"/><path d="M1365,4L1313,-104L1314,4Z" fill="#5194ca" stroke="#5194ca" stroke-width="1.51"/><path d="M1189,-82L1332,-123L1089,-120Z" fill="#5596cf" stroke="#5596cf" stroke-width="1.51"/><path d="M1089,-120L1332,-123L899,-153Z" fill="#5999d4" stroke="#5999d4" stroke-width="1.51"/><path d="M1438,-27L1365,4L1427,114Z" fill="#4f96c6" stroke="#4f96c6" stroke-width="1.51"/><path d="M1517,261L1615,201L1427,114Z" fill="#4c9dc0" stroke="#4c9dc0" stroke-width="1.51"/><path d="M1676,428L1555,420L1627,541Z" fill="#48abb9" stroke="#48abb9" stroke-width="1.51"/><path d="M-55,449L96,490L71,397Z" fill="#6ab9e1" stroke="#6ab9e1" stroke-width="1.51"/><path d="M-78,691L-46,785L76,672Z" fill="#5aa0d2" stroke="#5aa0d2" stroke-width="1.51"/><path d="M-16,324L71,397L72,323Z" fill="#69b1e2" stroke="#69b1e2" stroke-width="1.51"/><path d="M26,79L109,228L193,97Z" fill="#66a3e4" stroke="#66a3e4" stroke-width="1.51"/><path d="M109,228L-16,324L72,323Z" fill="#69ade3" stroke="#69ade3" stroke-width="1.51"/><path d="M1638,567L1672,523L1627,541Z" fill="#43a3b4" stroke="#43a3b4" stroke-width="1.51"/><path d="M1717,766L1672,523L1638,567Z" fill="#3e9daf" stroke="#3e9daf" stroke-width="1.51"/><path d="M-16,324L-55,449L71,397Z" fill="#69b3e1" stroke="#69b3e1" stroke-width="1.51"/><path d="M1528,-23L1438,-27L1427,114Z" fill="#4c92c4" stroke="#4c92c4" stroke-width="1.51"/><path d="M92,972L0,1004L120,1017Z" fill="#498dc1" stroke="#498dc1" stroke-width="1.51"/><path d="M14,812L6,919L65,865Z" fill="#5196c9" stroke="#5196c9" stroke-width="1.51"/><path d="M-46,785L6,919L14,812Z" fill="#5296cb" stroke="#5296cb" stroke-width="1.51"/><path d="M1313,-104L1332,-123L1189,-82Z" fill="#5292cd" stroke="#5292cd" stroke-width="1.51"/><path d="M1426,-74L1313,-104L1365,4Z" fill="#4f90c9" stroke="#4f90c9" stroke-width="1.51"/><path d="M1676,428L1644,309L1555,420Z" fill="#48a6ba" stroke="#48a6ba" stroke-width="1.51"/><path d="M1612,282L1615,201L1517,261Z" fill="#4a9dbd" stroke="#4a9dbd" stroke-width="1.51"/><path d="M-78,691L76,672L-8,625Z" fill="#5da5d5" stroke="#5da5d5" stroke-width="1.51"/><path d="M-78,691L-8,625L-52,550Z" fill="#5fa7d7" stroke="#5fa7d7" stroke-width="1.51"/><path d="M1609,961L1606,945L1492,994Z" fill="#2b839e" stroke="#2b839e" stroke-width="1.51"/><path d="M1638,723L1717,766L1638,567Z" fill="#3a97ac" stroke="#3a97ac" stroke-width="1.51"/><path d="M269,-37L165,-26L193,97Z" fill="#659fe5" stroke="#659fe5" stroke-width="1.51"/><path d="M255,-111L165,-26L269,-37Z" fill="#649ae5" stroke="#649ae5" stroke-width="1.51"/><path d="M1672,523L1676,428L1627,541Z" fill="#45a7b6" stroke="#45a7b6" stroke-width="1.51"/><path d="M370,-101L255,-111L269,-37Z" fill="#659ce5" stroke="#659ce5" stroke-width="1.51"/><path d="M162,-151L255,-111L370,-101Z" fill="#6397e6" stroke="#6397e6" stroke-width="1.51"/><path d="M162,-151L370,-101L423,-107Z" fill="#649ae5" stroke="#649ae5" stroke-width="1.51"/><path d="M1584,1076L1609,961L1492,994Z" fill="#28809d" stroke="#28809d" stroke-width="1.51"/><path d="M1702,901L1717,766L1565,796Z" fill="#328ca4" stroke="#328ca4" stroke-width="1.51"/><path d="M1582,61L1615,201L1684,80Z" fill="#4790bd" stroke="#4790bd" stroke-width="1.51"/><path d="M1700,182L1615,201L1612,282Z" fill="#4899bc" stroke="#4899bc" stroke-width="1.51"/><path d="M-163,652L-78,691L-52,550Z" fill="#5ea3d7" stroke="#5ea3d7" stroke-width="1.51"/><path d="M1528,-23L1426,-74L1438,-27Z" fill="#4c8dc5" stroke="#4c8dc5" stroke-width="1.51"/><path d="M1438,-27L1426,-74L1365,4Z" fill="#4e90c7" stroke="#4e90c7" stroke-width="1.51"/><path d="M6,919L0,1004L92,972Z" fill="#4b8ec4" stroke="#4b8ec4" stroke-width="1.51"/><path d="M-131,995L0,1004L6,919Z" fill="#4a89c4" stroke="#4a89c4" stroke-width="1.51"/><path d="M-186,911L6,919L-46,785Z" fill="#4f90ca" stroke="#4f90ca" stroke-width="1.51"/><path d="M-55,449L-107,468L-52,550Z" fill="#67b0df" stroke="#67b0df" stroke-width="1.51"/><path d="M-183,435L-107,468L-160,295Z" fill="#68abe3" stroke="#68abe3" stroke-width="1.51"/><path d="M-107,468L-55,449L-160,295Z" fill="#68aee2" stroke="#68aee2" stroke-width="1.51"/><path d="M1483,1059L1584,1076L1492,994Z" fill="#28809c" stroke="#28809c" stroke-width="1.51"/><path d="M1233,1103L1584,1076L1412,1060Z" fill="#2c85a0" stroke="#2c85a0" stroke-width="1.51"/><path d="M1656,1093L1584,1076L1233,1103Z" fill="#29809d" stroke="#29809d" stroke-width="1.51"/><path d="M165,-26L26,79L193,97Z" fill="#659ee5" stroke="#659ee5" stroke-width="1.51"/><path d="M58,-26L26,79L165,-26Z" fill="#6498e6" stroke="#6498e6" stroke-width="1.51"/><path d="M1702,901L1606,945L1609,961Z" fill="#2a829e" stroke="#2a829e" stroke-width="1.51"/><path d="M1702,901L1565,796L1606,945Z" fill="#2e87a1" stroke="#2e87a1" stroke-width="1.51"/><path d="M1672,523L1717,766L1676,428Z" fill="#41a1b2" stroke="#41a1b2" stroke-width="1.51"/><path d="M1615,201L1582,61L1427,114Z" fill="#4b95c0" stroke="#4b95c0" stroke-width="1.51"/><path d="M1700,182L1612,282L1644,309Z" fill="#489cbb" stroke="#489cbb" stroke-width="1.51"/><path d="M1584,1076L1631,1015L1609,961Z" fill="#267d9a" stroke="#267d9a" stroke-width="1.51"/><path d="M1582,61L1528,-23L1427,114Z" fill="#4b91c2" stroke="#4b91c2" stroke-width="1.51"/><path d="M1426,-74L1567,-139L1332,-123Z" fill="#4b88c6" stroke="#4b88c6" stroke-width="1.51"/><path d="M0,1004L24,1088L120,1017Z" fill="#4689bf" stroke="#4689bf" stroke-width="1.51"/><path d="M156,1084L24,1088L337,1147Z" fill="#468ebd" stroke="#468ebd" stroke-width="1.51"/><path d="M-78,691L-108,775L-46,785Z" fill="#5799d1" stroke="#5799d1" stroke-width="1.51"/><path d="M0,1004L-38,1080L24,1088Z" fill="#4484bf" stroke="#4484bf" stroke-width="1.51"/><path d="M-163,652L-108,775L-78,691Z" fill="#599bd3" stroke="#599bd3" stroke-width="1.51"/><path d="M26,79L-41,148L109,228Z" fill="#66a0e4" stroke="#66a0e4" stroke-width="1.51"/><path d="M1631,1015L1702,901L1609,961Z" fill="#29809d" stroke="#29809d" stroke-width="1.51"/><path d="M26,79L-11,70L-41,148Z" fill="#649ae6" stroke="#649ae6" stroke-width="1.51"/><path d="M66,-59L58,-26L165,-26Z" fill="#6294e6" stroke="#6294e6" stroke-width="1.51"/><path d="M9,-31L-11,70L26,79Z" fill="#6396e6" stroke="#6396e6" stroke-width="1.51"/><path d="M-107,468L-163,562L-52,550Z" fill="#64abdd" stroke="#64abdd" stroke-width="1.51"/><path d="M-183,435L-163,562L-107,468Z" fill="#66ace0" stroke="#66ace0" stroke-width="1.51"/><path d="M255,-111L162,-151L165,-26Z" fill="#6295e6" stroke="#6295e6" stroke-width="1.51"/><path d="M899,-153L162,-151L805,-137Z" fill="#68a8e3" stroke="#68a8e3" stroke-width="1.51"/><path d="M-131,995L-38,1080L0,1004Z" fill="#4684c0" stroke="#4684c0" stroke-width="1.51"/><path d="M-163,562L-163,652L-52,550Z" fill="#60a5da" stroke="#60a5da" stroke-width="1.51"/><path d="M1582,61L1710,-17L1528,-23Z" fill="#4689bf" stroke="#4689bf" stroke-width="1.51"/><path d="M1676,428L1700,182L1644,309Z" fill="#49a0ba" stroke="#49a0ba" stroke-width="1.51"/><path d="M1717,766L1700,182L1676,428Z" fill="#47aab8" stroke="#47aab8" stroke-width="1.51"/><path d="M162,-151L66,-59L165,-26Z" fill="#6193e7" stroke="#6193e7" stroke-width="1.51"/><path d="M58,-26L9,-31L26,79Z" fill="#6394e6" stroke="#6394e6" stroke-width="1.51"/><path d="M-179,60L-41,148L-11,70Z" fill="#6395e6" stroke="#6395e6" stroke-width="1.51"/><path d="M-179,60L-116,236L-41,148Z" fill="#6398e5" stroke="#6398e5" stroke-width="1.51"/><path d="M-41,148L-116,236L-16,324Z" fill="#66a2e4" stroke="#66a2e4" stroke-width="1.51"/><path d="M-131,995L6,919L-186,911Z" fill="#4b88c6" stroke="#4b88c6" stroke-width="1.51"/><path d="M24,1088L-120,1140L337,1147Z" fill="#4589be" stroke="#4589be" stroke-width="1.51"/><path d="M1631,1015L1656,1093L1702,901Z" fill="#267d9b" stroke="#267d9b" stroke-width="1.51"/><path d="M1584,1076L1656,1093L1631,1015Z" fill="#227998" stroke="#227998" stroke-width="1.51"/><path d="M954,1152L1656,1093L1233,1103Z" fill="#328ca4" stroke="#328ca4" stroke-width="1.51"/><path d="M-163,562L-183,435L-163,652Z" fill="#62a6dd" stroke="#62a6dd" stroke-width="1.51"/><path d="M-160,295L-55,449L-16,324Z" fill="#68abe3" stroke="#68abe3" stroke-width="1.51"/><path d="M-39,-104L9,-31L66,-59Z" fill="#608de7" stroke="#608de7" stroke-width="1.51"/><path d="M66,-59L9,-31L58,-26Z" fill="#6192e7" stroke="#6192e7" stroke-width="1.51"/><path d="M1700,182L1684,80L1615,201Z" fill="#4893bc" stroke="#4893bc" stroke-width="1.51"/><path d="M-179,60L-160,295L-116,236Z" fill="#649ae5" stroke="#649ae5" stroke-width="1.51"/><path d="M-116,236L-160,295L-16,324Z" fill="#67a4e4" stroke="#67a4e4" stroke-width="1.51"/><path d="M-186,911L-46,785L-108,775Z" fill="#5292cd" stroke="#5292cd" stroke-width="1.51"/><path d="M1710,-17L1567,-139L1528,-23Z" fill="#4584c0" stroke="#4584c0" stroke-width="1.51"/><path d="M1528,-23L1567,-139L1426,-74Z" fill="#4988c4" stroke="#4988c4" stroke-width="1.51"/><path d="M1332,-123L1567,-139L899,-153Z" fill="#5290ce" stroke="#5290ce" stroke-width="1.51"/><path d="M-183,435L-186,911L-163,652Z" fill="#5c9bd6" stroke="#5c9bd6" stroke-width="1.51"/><path d="M-163,652L-186,911L-108,775Z" fill="#5493d0" stroke="#5493d0" stroke-width="1.51"/><path d="M1684,80L1710,-17L1582,61Z" fill="#468bbe" stroke="#468bbe" stroke-width="1.51"/><path d="M1700,182L1710,-17L1684,80Z" fill="#468dbd" stroke="#468dbd" stroke-width="1.51"/><path d="M1717,766L1710,-17L1700,182Z" fill="#49a0ba" stroke="#49a0ba" stroke-width="1.51"/><path d="M-127,-53L-179,60L-11,70Z" fill="#608fe7" stroke="#608fe7" stroke-width="1.51"/><path d="M162,-151L-39,-104L66,-59Z" fill="#5f8de7" stroke="#5f8de7" stroke-width="1.51"/><path d="M-186,911L-120,1140L-131,995Z" fill="#4580c1" stroke="#4580c1" stroke-width="1.51"/><path d="M-131,995L-120,1140L-38,1080Z" fill="#437fbf" stroke="#437fbf" stroke-width="1.51"/><path d="M-38,1080L-120,1140L24,1088Z" fill="#4482bf" stroke="#4482bf" stroke-width="1.51"/><path d="M-111,-58L-11,70L9,-31Z" fill="#6190e7" stroke="#6190e7" stroke-width="1.51"/><path d="M-160,295L-179,60L-183,435Z" fill="#669ee4" stroke="#669ee4" stroke-width="1.51"/><path d="M-39,-104L-111,-58L9,-31Z" fill="#5e8be7" stroke="#5e8be7" stroke-width="1.51"/><path d="M-39,-104L-127,-53L-111,-58Z" fill="#5d87e8" stroke="#5d87e8" stroke-width="1.51"/><path d="M-111,-58L-127,-53L-11,70Z" fill="#5f8de7" stroke="#5f8de7" stroke-width="1.51"/><path d="M1710,-17L1709,-141L1567,-139Z" fill="#437fbf" stroke="#437fbf" stroke-width="1.51"/><path d="M1567,-139L1709,-141L899,-153Z" fill="#4c89c9" stroke="#4c89c9" stroke-width="1.51"/><path d="M1717,766L1709,-141L1710,-17Z" fill="#4897bc" stroke="#4897bc" stroke-width="1.51"/></svg>